<mxfile host="app.diagrams.net" modified="2024-05-09T12:38:55.327Z" agent="Mozilla/5.0 (Windows NT 10.0; Win64; x64) AppleWebKit/537.36 (KHTML, like Gecko) Chrome/124.0.0.0 Safari/537.36" etag="sIt4xowJZ93nEi1EvUgW" version="24.3.1" type="github" pages="8">
  <diagram id="prtHgNgQTEPvFCAcTncT" name="Page-1">
    <mxGraphModel dx="863" dy="459" grid="1" gridSize="10" guides="1" tooltips="1" connect="1" arrows="1" fold="1" page="1" pageScale="1" pageWidth="827" pageHeight="1169" math="0" shadow="0">
      <root>
        <mxCell id="0" />
        <mxCell id="1" parent="0" />
        <mxCell id="dNxyNK7c78bLwvsdeMH5-11" value="模型" style="swimlane;html=1;startSize=30;horizontal=1;containerType=tree;glass=0;fillColor=#fff2cc;strokeColor=#d6b656;fontSize=20;fontStyle=0" parent="1" vertex="1">
          <mxGeometry x="230" y="50" width="320" height="230" as="geometry" />
        </mxCell>
        <mxCell id="CNBxEztj_GBdA-0qCCIh-4" style="edgeStyle=orthogonalEdgeStyle;rounded=0;orthogonalLoop=1;jettySize=auto;html=1;exitX=1;exitY=0.5;exitDx=0;exitDy=0;entryX=1;entryY=0.5;entryDx=0;entryDy=0;fontSize=20;fontStyle=0" parent="dNxyNK7c78bLwvsdeMH5-11" source="CNBxEztj_GBdA-0qCCIh-1" target="CNBxEztj_GBdA-0qCCIh-2" edge="1">
          <mxGeometry relative="1" as="geometry">
            <Array as="points">
              <mxPoint x="220" y="90" />
              <mxPoint x="220" y="170" />
            </Array>
          </mxGeometry>
        </mxCell>
        <mxCell id="CNBxEztj_GBdA-0qCCIh-1" value="原始模型" style="rounded=0;whiteSpace=wrap;html=1;fillColor=#fff2cc;strokeColor=#d6b656;fontSize=20;fontStyle=0" parent="dNxyNK7c78bLwvsdeMH5-11" vertex="1">
          <mxGeometry x="40" y="70" width="120" height="40" as="geometry" />
        </mxCell>
        <mxCell id="CNBxEztj_GBdA-0qCCIh-2" value="遗忘模型" style="rounded=0;whiteSpace=wrap;html=1;fillColor=#dae8fc;strokeColor=#6c8ebf;fontSize=20;fontStyle=0" parent="dNxyNK7c78bLwvsdeMH5-11" vertex="1">
          <mxGeometry x="40" y="150" width="120" height="40" as="geometry" />
        </mxCell>
        <mxCell id="CNBxEztj_GBdA-0qCCIh-8" value="被遗忘权" style="text;html=1;align=center;verticalAlign=middle;resizable=0;points=[];autosize=1;strokeColor=none;fillColor=none;fontSize=20;fontStyle=0" parent="dNxyNK7c78bLwvsdeMH5-11" vertex="1">
          <mxGeometry x="210" y="105" width="100" height="40" as="geometry" />
        </mxCell>
        <mxCell id="CNBxEztj_GBdA-0qCCIh-12" style="edgeStyle=orthogonalEdgeStyle;curved=1;rounded=0;orthogonalLoop=1;jettySize=auto;html=1;exitX=0.5;exitY=0;exitDx=0;exitDy=0;entryX=0.5;entryY=0;entryDx=0;entryDy=0;fontSize=20;fontStyle=0" parent="1" source="CNBxEztj_GBdA-0qCCIh-9" target="CNBxEztj_GBdA-0qCCIh-1" edge="1">
          <mxGeometry relative="1" as="geometry" />
        </mxCell>
        <mxCell id="CNBxEztj_GBdA-0qCCIh-15" style="edgeStyle=orthogonalEdgeStyle;curved=1;rounded=0;orthogonalLoop=1;jettySize=auto;html=1;exitX=0.5;exitY=1;exitDx=0;exitDy=0;entryX=0.5;entryY=1;entryDx=0;entryDy=0;fontSize=20;fontStyle=0" parent="1" source="CNBxEztj_GBdA-0qCCIh-9" target="CNBxEztj_GBdA-0qCCIh-2" edge="1">
          <mxGeometry relative="1" as="geometry" />
        </mxCell>
        <mxCell id="CNBxEztj_GBdA-0qCCIh-9" value="&lt;span data-sider-select-id=&quot;b66851cc-4917-4bcd-8382-91b54202844a&quot; style=&quot;font-size: 20px;&quot;&gt;&lt;font data-sider-select-id=&quot;159913b2-0fe9-4c24-91b5-28f74898846d&quot; style=&quot;font-size: 20px;&quot;&gt;目标样本x&lt;/font&gt;&lt;/span&gt;" style="rounded=1;whiteSpace=wrap;html=1;strokeWidth=2;fillWeight=4;hachureGap=8;hachureAngle=45;fillColor=#fff2cc;strokeColor=#d6b656;fontSize=20;fontStyle=0" parent="1" vertex="1">
          <mxGeometry x="80" y="160" width="120" height="40" as="geometry" />
        </mxCell>
        <mxCell id="CNBxEztj_GBdA-0qCCIh-11" style="edgeStyle=orthogonalEdgeStyle;rounded=0;orthogonalLoop=1;jettySize=auto;html=1;entryX=1;entryY=0.5;entryDx=0;entryDy=0;fontSize=20;fontStyle=0" parent="1" source="CNBxEztj_GBdA-0qCCIh-10" target="dNxyNK7c78bLwvsdeMH5-11" edge="1">
          <mxGeometry relative="1" as="geometry" />
        </mxCell>
        <mxCell id="CNBxEztj_GBdA-0qCCIh-10" value="&lt;font data-sider-select-id=&quot;8099bc3c-d4d3-42b1-ae09-1cb9d2773f93&quot; style=&quot;font-size: 20px;&quot;&gt;&lt;span data-sider-select-id=&quot;1311a330-679d-412c-83cf-ab34633ec1e5&quot; style=&quot;font-size: 20px;&quot;&gt;攻击模型&lt;/span&gt;&lt;/font&gt;" style="ellipse;whiteSpace=wrap;html=1;strokeWidth=2;fillWeight=2;hachureGap=8;fillColor=#dae8fc;fillStyle=auto;strokeColor=#6c8ebf;fontSize=20;fontStyle=0" parent="1" vertex="1">
          <mxGeometry x="590" y="135" width="120" height="60" as="geometry" />
        </mxCell>
        <mxCell id="CNBxEztj_GBdA-0qCCIh-14" value="有" style="text;html=1;align=center;verticalAlign=middle;resizable=0;points=[];autosize=1;strokeColor=none;fillColor=none;fontSize=20;fontStyle=0" parent="1" vertex="1">
          <mxGeometry x="160" y="75" width="40" height="40" as="geometry" />
        </mxCell>
        <mxCell id="CNBxEztj_GBdA-0qCCIh-16" value="无" style="text;html=1;align=center;verticalAlign=middle;resizable=0;points=[];autosize=1;strokeColor=none;fillColor=none;fontSize=20;fontStyle=0" parent="1" vertex="1">
          <mxGeometry x="150" y="255" width="40" height="40" as="geometry" />
        </mxCell>
      </root>
    </mxGraphModel>
  </diagram>
  <diagram id="TTNQEVLS06cgV1fhRFLq" name="第 2 页">
    <mxGraphModel dx="1036" dy="551" grid="1" gridSize="10" guides="1" tooltips="1" connect="1" arrows="1" fold="1" page="1" pageScale="1" pageWidth="827" pageHeight="1169" math="0" shadow="0">
      <root>
        <mxCell id="0" />
        <mxCell id="1" parent="0" />
        <mxCell id="U6nEaLADJFIHXVozQ4xb-1" value="" style="rounded=1;whiteSpace=wrap;fontSize=20;fontStyle=0;labelBackgroundColor=#F5F5F5;labelBorderColor=#D78E40;textShadow=0;" parent="1" vertex="1">
          <mxGeometry x="80" y="570" width="380" height="130" as="geometry" />
        </mxCell>
        <mxCell id="U6nEaLADJFIHXVozQ4xb-2" value="剩余样本" style="shape=cylinder3;whiteSpace=wrap;html=1;boundedLbl=1;backgroundOutline=1;size=15;fontSize=20;fontStyle=0;fillColor=#f5f5f5;fontColor=#333333;strokeColor=#666666;" parent="1" vertex="1">
          <mxGeometry x="120" y="613" width="120" height="77" as="geometry" />
        </mxCell>
        <mxCell id="U6nEaLADJFIHXVozQ4xb-4" value="删除样本x" style="shape=cylinder3;whiteSpace=wrap;html=1;boundedLbl=1;backgroundOutline=1;size=15;fontSize=20;fontStyle=0;fillColor=#f5f5f5;fontColor=#333333;strokeColor=#666666;" parent="1" vertex="1">
          <mxGeometry x="294" y="610" width="120" height="77" as="geometry" />
        </mxCell>
        <mxCell id="U6nEaLADJFIHXVozQ4xb-5" value="" style="shape=image;html=1;verticalLabelPosition=bottom;verticalAlign=top;imageAspect=1;aspect=fixed;image=img/clipart/Gear_128x128.png;fontSize=20;fontStyle=0" parent="1" vertex="1">
          <mxGeometry x="140" y="760" width="68.2" height="80" as="geometry" />
        </mxCell>
        <mxCell id="U6nEaLADJFIHXVozQ4xb-9" style="edgeStyle=orthogonalEdgeStyle;rounded=0;orthogonalLoop=1;jettySize=auto;html=1;fontSize=20;fontStyle=0" parent="1" source="U6nEaLADJFIHXVozQ4xb-6" edge="1">
          <mxGeometry relative="1" as="geometry">
            <mxPoint x="695.375" y="750" as="targetPoint" />
          </mxGeometry>
        </mxCell>
        <mxCell id="U6nEaLADJFIHXVozQ4xb-6" value="" style="shape=image;html=1;verticalLabelPosition=bottom;verticalAlign=top;imageAspect=1;aspect=fixed;image=img/clipart/Gear_128x128.png;fontSize=20;fontStyle=0" parent="1" vertex="1">
          <mxGeometry x="660" y="607" width="70.75" height="83" as="geometry" />
        </mxCell>
        <mxCell id="U6nEaLADJFIHXVozQ4xb-7" value="" style="shape=image;html=1;verticalLabelPosition=bottom;verticalAlign=top;imageAspect=1;aspect=fixed;image=img/clipart/Gear_128x128.png;fontSize=20;fontStyle=0" parent="1" vertex="1">
          <mxGeometry x="660" y="763.5" width="65.21" height="76.5" as="geometry" />
        </mxCell>
        <mxCell id="U6nEaLADJFIHXVozQ4xb-8" style="edgeStyle=orthogonalEdgeStyle;rounded=0;orthogonalLoop=1;jettySize=auto;html=1;entryX=0;entryY=0.337;entryDx=0;entryDy=0;entryPerimeter=0;fontSize=20;fontStyle=0" parent="1" source="U6nEaLADJFIHXVozQ4xb-1" target="U6nEaLADJFIHXVozQ4xb-6" edge="1">
          <mxGeometry relative="1" as="geometry" />
        </mxCell>
        <mxCell id="U6nEaLADJFIHXVozQ4xb-11" value="" style="endArrow=block;startArrow=block;endFill=1;startFill=1;html=1;rounded=0;fontSize=20;fontStyle=0" parent="1" target="U6nEaLADJFIHXVozQ4xb-7" edge="1">
          <mxGeometry width="160" relative="1" as="geometry">
            <mxPoint x="210" y="800" as="sourcePoint" />
            <mxPoint x="340" y="800" as="targetPoint" />
          </mxGeometry>
        </mxCell>
        <mxCell id="U6nEaLADJFIHXVozQ4xb-12" value="训练数据集" style="text;html=1;align=center;verticalAlign=middle;resizable=0;points=[];autosize=1;fontSize=20;fontStyle=0;" parent="1" vertex="1">
          <mxGeometry x="200" y="572" width="120" height="40" as="geometry" />
        </mxCell>
        <mxCell id="U6nEaLADJFIHXVozQ4xb-13" value="训练" style="text;html=1;align=center;verticalAlign=middle;resizable=0;points=[];autosize=1;strokeColor=none;fillColor=none;fontSize=20;fontStyle=0" parent="1" vertex="1">
          <mxGeometry x="520" y="603" width="60" height="40" as="geometry" />
        </mxCell>
        <mxCell id="U6nEaLADJFIHXVozQ4xb-14" value="机器遗忘" style="text;html=1;align=center;verticalAlign=middle;resizable=0;points=[];autosize=1;strokeColor=none;fillColor=none;fontSize=20;fontStyle=0;labelBackgroundColor=default;" parent="1" vertex="1">
          <mxGeometry x="645.38" y="700" width="100" height="40" as="geometry" />
        </mxCell>
        <mxCell id="U6nEaLADJFIHXVozQ4xb-15" value="目标模型" style="text;html=1;align=center;verticalAlign=middle;resizable=0;points=[];autosize=1;strokeColor=none;fillColor=none;fontSize=20;fontStyle=0" parent="1" vertex="1">
          <mxGeometry x="640.21" y="565" width="100" height="40" as="geometry" />
        </mxCell>
        <mxCell id="U6nEaLADJFIHXVozQ4xb-16" value="遗忘模型" style="text;html=1;align=center;verticalAlign=middle;resizable=0;points=[];autosize=1;strokeColor=none;fillColor=none;fontSize=20;fontStyle=0" parent="1" vertex="1">
          <mxGeometry x="655" y="843" width="100" height="40" as="geometry" />
        </mxCell>
        <mxCell id="U6nEaLADJFIHXVozQ4xb-17" value="相似" style="text;html=1;align=center;verticalAlign=middle;resizable=0;points=[];autosize=1;strokeColor=none;fillColor=none;fontSize=20;fontStyle=0" parent="1" vertex="1">
          <mxGeometry x="390" y="763" width="60" height="40" as="geometry" />
        </mxCell>
        <mxCell id="U6nEaLADJFIHXVozQ4xb-18" value="再训练模型" style="text;html=1;align=center;verticalAlign=middle;resizable=0;points=[];autosize=1;strokeColor=none;fillColor=none;fontSize=20;fontStyle=0" parent="1" vertex="1">
          <mxGeometry x="120" y="843" width="120" height="40" as="geometry" />
        </mxCell>
        <mxCell id="U6nEaLADJFIHXVozQ4xb-20" style="edgeStyle=orthogonalEdgeStyle;rounded=0;orthogonalLoop=1;jettySize=auto;html=1;exitX=0.5;exitY=1;exitDx=0;exitDy=0;exitPerimeter=0;entryX=0.587;entryY=0.25;entryDx=0;entryDy=0;entryPerimeter=0;fontSize=20;fontStyle=0" parent="1" source="U6nEaLADJFIHXVozQ4xb-2" target="U6nEaLADJFIHXVozQ4xb-5" edge="1">
          <mxGeometry relative="1" as="geometry" />
        </mxCell>
      </root>
    </mxGraphModel>
  </diagram>
  <diagram id="n0tPAr2NSBtdPxqh8YDk" name="第 4 页">
    <mxGraphModel dx="1036" dy="-618" grid="1" gridSize="10" guides="1" tooltips="1" connect="1" arrows="1" fold="1" page="1" pageScale="1" pageWidth="827" pageHeight="1169" math="0" shadow="0">
      <root>
        <mxCell id="0" />
        <mxCell id="1" parent="0" />
        <mxCell id="A3tYGPcPbJUXy6pTdbpV-4" value="" style="group" parent="1" vertex="1" connectable="0">
          <mxGeometry x="170" y="1848" width="1390" height="490" as="geometry" />
        </mxCell>
        <mxCell id="AUXNBVMDQpoTd1R2UJ2k-1" style="edgeStyle=orthogonalEdgeStyle;curved=1;rounded=0;orthogonalLoop=1;jettySize=auto;html=1;exitX=0.855;exitY=0;exitDx=0;exitDy=4.35;exitPerimeter=0;fontSize=16;fontStyle=3;fillColor=#f5f5f5;strokeColor=#666666;" parent="A3tYGPcPbJUXy6pTdbpV-4" source="AUXNBVMDQpoTd1R2UJ2k-2" target="AUXNBVMDQpoTd1R2UJ2k-4" edge="1">
          <mxGeometry relative="1" as="geometry" />
        </mxCell>
        <mxCell id="AUXNBVMDQpoTd1R2UJ2k-2" value="阴影数据集D&lt;sub style=&quot;font-size: 16px;&quot;&gt;s&lt;/sub&gt;" style="shape=cylinder3;whiteSpace=wrap;html=1;boundedLbl=1;backgroundOutline=1;size=15;fillColor=#f5f5f5;fontColor=#333333;strokeColor=#666666;fontSize=16;fontStyle=3" parent="A3tYGPcPbJUXy6pTdbpV-4" vertex="1">
          <mxGeometry x="276.1830065359477" y="150" width="163.52941176470588" height="80" as="geometry" />
        </mxCell>
        <mxCell id="AUXNBVMDQpoTd1R2UJ2k-3" style="edgeStyle=orthogonalEdgeStyle;curved=1;rounded=0;orthogonalLoop=1;jettySize=auto;html=1;exitX=1;exitY=0.5;exitDx=0;exitDy=0;exitPerimeter=0;entryX=0;entryY=0.5;entryDx=0;entryDy=0;fontSize=16;fontStyle=3;fillColor=#f5f5f5;strokeColor=#666666;" parent="A3tYGPcPbJUXy6pTdbpV-4" source="AUXNBVMDQpoTd1R2UJ2k-4" target="AUXNBVMDQpoTd1R2UJ2k-17" edge="1">
          <mxGeometry relative="1" as="geometry" />
        </mxCell>
        <mxCell id="AUXNBVMDQpoTd1R2UJ2k-4" value="阴影负数据集D&lt;span style=&quot;font-size: 16px;&quot;&gt;&lt;sub style=&quot;font-size: 16px;&quot;&gt;n&lt;/sub&gt;&lt;/span&gt;" style="shape=cylinder3;whiteSpace=wrap;html=1;boundedLbl=1;backgroundOutline=1;size=15;fillColor=#f5f5f5;strokeColor=#666666;fontSize=16;fontStyle=3;fontColor=#333333;" parent="A3tYGPcPbJUXy6pTdbpV-4" vertex="1">
          <mxGeometry x="439.71241830065355" y="30" width="163.52941176470588" height="80" as="geometry" />
        </mxCell>
        <mxCell id="AUXNBVMDQpoTd1R2UJ2k-5" style="edgeStyle=orthogonalEdgeStyle;curved=1;rounded=0;orthogonalLoop=1;jettySize=auto;html=1;exitX=1;exitY=0.5;exitDx=0;exitDy=0;exitPerimeter=0;fontSize=16;fontStyle=3;fillColor=#f5f5f5;strokeColor=#666666;" parent="A3tYGPcPbJUXy6pTdbpV-4" source="AUXNBVMDQpoTd1R2UJ2k-6" target="AUXNBVMDQpoTd1R2UJ2k-28" edge="1">
          <mxGeometry relative="1" as="geometry" />
        </mxCell>
        <mxCell id="AUXNBVMDQpoTd1R2UJ2k-6" value="阴影正数据集D&lt;sub style=&quot;font-size: 16px;&quot;&gt;p&lt;/sub&gt;" style="shape=cylinder3;whiteSpace=wrap;html=1;boundedLbl=1;backgroundOutline=1;size=15;fillColor=#f5f5f5;strokeColor=#666666;fontSize=16;fontStyle=3;fontColor=#333333;" parent="A3tYGPcPbJUXy6pTdbpV-4" vertex="1">
          <mxGeometry x="445.16339869281046" y="270" width="163.52941176470588" height="80" as="geometry" />
        </mxCell>
        <mxCell id="AUXNBVMDQpoTd1R2UJ2k-7" style="edgeStyle=orthogonalEdgeStyle;curved=1;rounded=0;orthogonalLoop=1;jettySize=auto;html=1;exitX=0.5;exitY=1;exitDx=0;exitDy=0;exitPerimeter=0;entryX=0.5;entryY=0;entryDx=0;entryDy=0;fontSize=16;fontStyle=3;fillColor=#dae8fc;strokeColor=#6c8ebf;" parent="A3tYGPcPbJUXy6pTdbpV-4" source="AUXNBVMDQpoTd1R2UJ2k-8" target="AUXNBVMDQpoTd1R2UJ2k-13" edge="1">
          <mxGeometry relative="1" as="geometry" />
        </mxCell>
        <mxCell id="AUXNBVMDQpoTd1R2UJ2k-8" value="原始数据集D&lt;sub style=&quot;font-size: 16px;&quot;&gt;t&lt;/sub&gt;" style="shape=cylinder3;whiteSpace=wrap;html=1;boundedLbl=1;backgroundOutline=1;size=15;fillColor=#f5f5f5;strokeColor=#666666;fontSize=16;fontStyle=3;fontColor=#333333;" parent="A3tYGPcPbJUXy6pTdbpV-4" vertex="1">
          <mxGeometry y="150" width="163.52941176470588" height="80" as="geometry" />
        </mxCell>
        <mxCell id="AUXNBVMDQpoTd1R2UJ2k-9" style="edgeStyle=orthogonalEdgeStyle;curved=1;rounded=0;orthogonalLoop=1;jettySize=auto;html=1;entryX=0;entryY=0.5;entryDx=0;entryDy=0;entryPerimeter=0;fontSize=16;fontStyle=3;fillColor=#f5f5f5;strokeColor=#666666;" parent="A3tYGPcPbJUXy6pTdbpV-4" source="AUXNBVMDQpoTd1R2UJ2k-8" target="AUXNBVMDQpoTd1R2UJ2k-2" edge="1">
          <mxGeometry relative="1" as="geometry" />
        </mxCell>
        <mxCell id="AUXNBVMDQpoTd1R2UJ2k-10" value="模拟" style="text;html=1;align=center;verticalAlign=middle;resizable=0;points=[];autosize=1;strokeColor=#666666;fillColor=#f5f5f5;fontSize=16;fontStyle=3;fontColor=#333333;" parent="A3tYGPcPbJUXy6pTdbpV-4" vertex="1">
          <mxGeometry x="186.24183006535947" y="160" width="60" height="30" as="geometry" />
        </mxCell>
        <mxCell id="AUXNBVMDQpoTd1R2UJ2k-11" value="分布类似" style="text;html=1;align=center;verticalAlign=middle;resizable=0;points=[];autosize=1;strokeColor=#666666;fillColor=#f5f5f5;fontSize=16;fontStyle=3;fontColor=#333333;" parent="A3tYGPcPbJUXy6pTdbpV-4" vertex="1">
          <mxGeometry x="172.6143790849673" y="200" width="90" height="30" as="geometry" />
        </mxCell>
        <mxCell id="AUXNBVMDQpoTd1R2UJ2k-12" style="edgeStyle=orthogonalEdgeStyle;curved=1;rounded=0;orthogonalLoop=1;jettySize=auto;html=1;exitX=0.855;exitY=1;exitDx=0;exitDy=-4.35;exitPerimeter=0;entryX=0.5;entryY=0;entryDx=0;entryDy=0;entryPerimeter=0;fontSize=16;fontStyle=3;fillColor=#f5f5f5;strokeColor=#666666;" parent="A3tYGPcPbJUXy6pTdbpV-4" source="AUXNBVMDQpoTd1R2UJ2k-2" target="AUXNBVMDQpoTd1R2UJ2k-6" edge="1">
          <mxGeometry relative="1" as="geometry">
            <Array as="points">
              <mxPoint x="416.09150326797385" y="240" />
              <mxPoint x="526.9281045751634" y="240" />
            </Array>
          </mxGeometry>
        </mxCell>
        <mxCell id="AUXNBVMDQpoTd1R2UJ2k-13" value="目标模型" style="rounded=1;whiteSpace=wrap;html=1;fillColor=#fff2cc;strokeColor=#d6b656;fontSize=16;fontStyle=3" parent="A3tYGPcPbJUXy6pTdbpV-4" vertex="1">
          <mxGeometry x="27.254901960784313" y="430" width="109.01960784313725" height="60" as="geometry" />
        </mxCell>
        <mxCell id="AUXNBVMDQpoTd1R2UJ2k-14" value="训练" style="text;html=1;align=center;verticalAlign=middle;resizable=0;points=[];autosize=1;strokeColor=#666666;fillColor=#f5f5f5;fontSize=16;fontStyle=3;fontColor=#333333;" parent="A3tYGPcPbJUXy6pTdbpV-4" vertex="1">
          <mxGeometry x="49.9997385620915" y="318" width="60" height="30" as="geometry" />
        </mxCell>
        <mxCell id="AUXNBVMDQpoTd1R2UJ2k-15" style="edgeStyle=none;rounded=0;orthogonalLoop=1;jettySize=auto;html=1;exitX=1;exitY=0.5;exitDx=0;exitDy=0;fontSize=16;fontStyle=3;fillColor=#f5f5f5;strokeColor=#666666;" parent="A3tYGPcPbJUXy6pTdbpV-4" source="AUXNBVMDQpoTd1R2UJ2k-17" target="AUXNBVMDQpoTd1R2UJ2k-19" edge="1">
          <mxGeometry relative="1" as="geometry" />
        </mxCell>
        <mxCell id="AUXNBVMDQpoTd1R2UJ2k-16" style="edgeStyle=none;rounded=0;orthogonalLoop=1;jettySize=auto;html=1;fontSize=16;fontStyle=3;fillColor=#f5f5f5;strokeColor=#666666;" parent="A3tYGPcPbJUXy6pTdbpV-4" source="AUXNBVMDQpoTd1R2UJ2k-17" target="AUXNBVMDQpoTd1R2UJ2k-20" edge="1">
          <mxGeometry relative="1" as="geometry" />
        </mxCell>
        <mxCell id="AUXNBVMDQpoTd1R2UJ2k-17" value="X&lt;span style=&quot;font-size: 16px;&quot;&gt;n&lt;/span&gt;" style="rhombus;whiteSpace=wrap;html=1;fontSize=16;fontStyle=3;fillColor=#f5f5f5;fontColor=#333333;strokeColor=#666666;" parent="A3tYGPcPbJUXy6pTdbpV-4" vertex="1">
          <mxGeometry x="654.1176470588235" y="45" width="45.424836601307184" height="50" as="geometry" />
        </mxCell>
        <mxCell id="AUXNBVMDQpoTd1R2UJ2k-18" value="" style="swimlane;whiteSpace=wrap;html=1;fillColor=#f5f5f5;strokeColor=#666666;fontSize=16;fontStyle=3;fontColor=#333333;" parent="A3tYGPcPbJUXy6pTdbpV-4" vertex="1">
          <mxGeometry x="772.2222222222223" width="181.69934640522874" height="140" as="geometry" />
        </mxCell>
        <mxCell id="AUXNBVMDQpoTd1R2UJ2k-19" value="原始模型" style="rounded=1;whiteSpace=wrap;html=1;fillColor=#f5f5f5;strokeColor=#666666;fontSize=16;fontStyle=3;fontColor=#333333;" parent="AUXNBVMDQpoTd1R2UJ2k-18" vertex="1">
          <mxGeometry x="18.16993464052287" y="30" width="127.18954248366012" height="40" as="geometry" />
        </mxCell>
        <mxCell id="AUXNBVMDQpoTd1R2UJ2k-20" value="遗忘模型" style="rounded=1;whiteSpace=wrap;html=1;fillColor=#f5f5f5;strokeColor=#666666;fontSize=16;fontStyle=3;fontColor=#333333;" parent="AUXNBVMDQpoTd1R2UJ2k-18" vertex="1">
          <mxGeometry x="18.16993464052287" y="90" width="127.18954248366012" height="40" as="geometry" />
        </mxCell>
        <mxCell id="AUXNBVMDQpoTd1R2UJ2k-21" value="" style="endArrow=classic;html=1;rounded=0;curved=1;fontSize=16;fontStyle=3" parent="A3tYGPcPbJUXy6pTdbpV-4" source="AUXNBVMDQpoTd1R2UJ2k-13" edge="1">
          <mxGeometry relative="1" as="geometry">
            <mxPoint x="136.27450980392157" y="380" as="sourcePoint" />
            <mxPoint x="1153.7908496732025" y="460" as="targetPoint" />
          </mxGeometry>
        </mxCell>
        <mxCell id="AUXNBVMDQpoTd1R2UJ2k-22" value="Label" style="edgeLabel;resizable=0;html=1;;align=center;verticalAlign=middle;fontSize=16;fontStyle=3" parent="AUXNBVMDQpoTd1R2UJ2k-21" connectable="0" vertex="1">
          <mxGeometry relative="1" as="geometry" />
        </mxCell>
        <mxCell id="AUXNBVMDQpoTd1R2UJ2k-23" value="" style="swimlane;whiteSpace=wrap;html=1;fillColor=#f5f5f5;strokeColor=#666666;fontSize=16;fontStyle=3;fontColor=#333333;" parent="A3tYGPcPbJUXy6pTdbpV-4" vertex="1">
          <mxGeometry x="772.2222222222223" y="230" width="181.69934640522874" height="140" as="geometry" />
        </mxCell>
        <mxCell id="AUXNBVMDQpoTd1R2UJ2k-24" value="原始模型" style="rounded=1;whiteSpace=wrap;html=1;fillColor=#f5f5f5;strokeColor=#666666;fontSize=16;fontStyle=3;fontColor=#333333;" parent="AUXNBVMDQpoTd1R2UJ2k-23" vertex="1">
          <mxGeometry x="18.16993464052287" y="30" width="127.18954248366012" height="40" as="geometry" />
        </mxCell>
        <mxCell id="AUXNBVMDQpoTd1R2UJ2k-25" value="遗忘模型" style="rounded=1;whiteSpace=wrap;html=1;fillColor=#f5f5f5;strokeColor=#666666;fontSize=16;fontStyle=3;fontColor=#333333;" parent="AUXNBVMDQpoTd1R2UJ2k-23" vertex="1">
          <mxGeometry x="18.16993464052287" y="90" width="127.18954248366012" height="40" as="geometry" />
        </mxCell>
        <mxCell id="AUXNBVMDQpoTd1R2UJ2k-26" style="edgeStyle=none;rounded=0;orthogonalLoop=1;jettySize=auto;html=1;fontSize=16;fontStyle=3;fillColor=#f5f5f5;strokeColor=#666666;" parent="A3tYGPcPbJUXy6pTdbpV-4" source="AUXNBVMDQpoTd1R2UJ2k-28" target="AUXNBVMDQpoTd1R2UJ2k-24" edge="1">
          <mxGeometry relative="1" as="geometry" />
        </mxCell>
        <mxCell id="AUXNBVMDQpoTd1R2UJ2k-27" style="edgeStyle=none;rounded=0;orthogonalLoop=1;jettySize=auto;html=1;fontSize=16;fontStyle=3;fillColor=#f5f5f5;strokeColor=#666666;" parent="A3tYGPcPbJUXy6pTdbpV-4" source="AUXNBVMDQpoTd1R2UJ2k-28" target="AUXNBVMDQpoTd1R2UJ2k-25" edge="1">
          <mxGeometry relative="1" as="geometry" />
        </mxCell>
        <mxCell id="AUXNBVMDQpoTd1R2UJ2k-28" value="X&lt;sub style=&quot;font-size: 16px;&quot;&gt;p&lt;/sub&gt;" style="rhombus;whiteSpace=wrap;html=1;fontSize=16;fontStyle=3;fillColor=#f5f5f5;fontColor=#333333;strokeColor=#666666;" parent="A3tYGPcPbJUXy6pTdbpV-4" vertex="1">
          <mxGeometry x="651.3921568627452" y="285" width="48.150326797385624" height="50" as="geometry" />
        </mxCell>
        <mxCell id="A3tYGPcPbJUXy6pTdbpV-2" style="edgeStyle=orthogonalEdgeStyle;rounded=0;orthogonalLoop=1;jettySize=auto;html=1;entryX=0;entryY=0.25;entryDx=0;entryDy=0;" parent="A3tYGPcPbJUXy6pTdbpV-4" source="AUXNBVMDQpoTd1R2UJ2k-30" target="AUXNBVMDQpoTd1R2UJ2k-33" edge="1">
          <mxGeometry relative="1" as="geometry" />
        </mxCell>
        <mxCell id="AUXNBVMDQpoTd1R2UJ2k-30" value="F" style="ellipse;whiteSpace=wrap;html=1;aspect=fixed;fillColor=#f5f5f5;fontColor=#333333;strokeColor=#666666;fontSize=16;fontStyle=3" parent="A3tYGPcPbJUXy6pTdbpV-4" vertex="1">
          <mxGeometry x="1008.4313725490197" y="90" width="36.33986928104575" height="36.33986928104575" as="geometry" />
        </mxCell>
        <mxCell id="A3tYGPcPbJUXy6pTdbpV-3" style="edgeStyle=orthogonalEdgeStyle;rounded=0;orthogonalLoop=1;jettySize=auto;html=1;entryX=0.5;entryY=0;entryDx=0;entryDy=0;" parent="A3tYGPcPbJUXy6pTdbpV-4" source="AUXNBVMDQpoTd1R2UJ2k-32" target="AUXNBVMDQpoTd1R2UJ2k-33" edge="1">
          <mxGeometry relative="1" as="geometry" />
        </mxCell>
        <mxCell id="AUXNBVMDQpoTd1R2UJ2k-32" value="F" style="ellipse;whiteSpace=wrap;html=1;aspect=fixed;fillColor=#f5f5f5;fontColor=#333333;strokeColor=#666666;fontSize=16;fontStyle=3" parent="A3tYGPcPbJUXy6pTdbpV-4" vertex="1">
          <mxGeometry x="1008.4313725490197" y="320" width="36.33986928104575" height="36.33986928104575" as="geometry" />
        </mxCell>
        <mxCell id="AUXNBVMDQpoTd1R2UJ2k-33" value="攻击模型" style="shape=ext;double=1;rounded=1;whiteSpace=wrap;html=1;fillColor=#fff2cc;strokeColor=#d6b656;fontSize=16;fontStyle=3" parent="A3tYGPcPbJUXy6pTdbpV-4" vertex="1">
          <mxGeometry x="1153.7908496732025" y="408" width="236.20915032679738" height="82" as="geometry" />
        </mxCell>
        <mxCell id="AUXNBVMDQpoTd1R2UJ2k-34" value="包含" style="text;html=1;align=center;verticalAlign=middle;resizable=0;points=[];autosize=1;strokeColor=none;fillColor=none;fontSize=16;fontStyle=3;fontColor=#333333;" parent="A3tYGPcPbJUXy6pTdbpV-4" vertex="1">
          <mxGeometry x="708.6274509803922" y="38" width="60" height="30" as="geometry" />
        </mxCell>
        <mxCell id="AUXNBVMDQpoTd1R2UJ2k-35" value="不包含" style="text;html=1;align=center;verticalAlign=middle;resizable=0;points=[];autosize=1;strokeColor=none;fillColor=none;fontSize=16;fontStyle=3;fontColor=#333333;" parent="A3tYGPcPbJUXy6pTdbpV-4" vertex="1">
          <mxGeometry x="695" y="88" width="70" height="30" as="geometry" />
        </mxCell>
        <mxCell id="AUXNBVMDQpoTd1R2UJ2k-36" value="包含" style="text;html=1;align=center;verticalAlign=middle;resizable=0;points=[];autosize=1;strokeColor=none;fillColor=none;fontSize=16;fontStyle=3;fontColor=#333333;" parent="A3tYGPcPbJUXy6pTdbpV-4" vertex="1">
          <mxGeometry x="708.6274509803922" y="268" width="60" height="30" as="geometry" />
        </mxCell>
        <mxCell id="AUXNBVMDQpoTd1R2UJ2k-37" value="不包含" style="text;html=1;align=center;verticalAlign=middle;resizable=0;points=[];autosize=1;strokeColor=none;fillColor=none;fontSize=16;fontStyle=3;fontColor=#333333;" parent="A3tYGPcPbJUXy6pTdbpV-4" vertex="1">
          <mxGeometry x="695" y="318" width="70" height="30" as="geometry" />
        </mxCell>
        <mxCell id="AUXNBVMDQpoTd1R2UJ2k-38" style="edgeStyle=orthogonalEdgeStyle;rounded=0;orthogonalLoop=1;jettySize=auto;html=1;exitX=1;exitY=0.5;exitDx=0;exitDy=0;entryX=0.5;entryY=0;entryDx=0;entryDy=0;fontSize=16;fontStyle=3;fillColor=#f5f5f5;strokeColor=#666666;" parent="A3tYGPcPbJUXy6pTdbpV-4" source="AUXNBVMDQpoTd1R2UJ2k-19" target="AUXNBVMDQpoTd1R2UJ2k-30" edge="1">
          <mxGeometry relative="1" as="geometry" />
        </mxCell>
        <mxCell id="AUXNBVMDQpoTd1R2UJ2k-39" style="edgeStyle=orthogonalEdgeStyle;rounded=0;orthogonalLoop=1;jettySize=auto;html=1;exitX=1;exitY=0.5;exitDx=0;exitDy=0;entryX=0;entryY=0.5;entryDx=0;entryDy=0;fontSize=16;fontStyle=3;fillColor=#f5f5f5;strokeColor=#666666;" parent="A3tYGPcPbJUXy6pTdbpV-4" source="AUXNBVMDQpoTd1R2UJ2k-20" target="AUXNBVMDQpoTd1R2UJ2k-30" edge="1">
          <mxGeometry relative="1" as="geometry" />
        </mxCell>
        <mxCell id="AUXNBVMDQpoTd1R2UJ2k-40" style="edgeStyle=orthogonalEdgeStyle;rounded=0;orthogonalLoop=1;jettySize=auto;html=1;exitX=1;exitY=0.25;exitDx=0;exitDy=0;entryX=0.5;entryY=0;entryDx=0;entryDy=0;fontSize=16;fontStyle=3;fillColor=#f5f5f5;strokeColor=#666666;" parent="A3tYGPcPbJUXy6pTdbpV-4" source="AUXNBVMDQpoTd1R2UJ2k-24" target="AUXNBVMDQpoTd1R2UJ2k-32" edge="1">
          <mxGeometry relative="1" as="geometry" />
        </mxCell>
        <mxCell id="AUXNBVMDQpoTd1R2UJ2k-41" style="edgeStyle=orthogonalEdgeStyle;rounded=0;orthogonalLoop=1;jettySize=auto;html=1;exitX=1;exitY=0.5;exitDx=0;exitDy=0;entryX=0;entryY=0.5;entryDx=0;entryDy=0;fontSize=16;fontStyle=3;fillColor=#f5f5f5;strokeColor=#666666;" parent="A3tYGPcPbJUXy6pTdbpV-4" source="AUXNBVMDQpoTd1R2UJ2k-25" target="AUXNBVMDQpoTd1R2UJ2k-32" edge="1">
          <mxGeometry relative="1" as="geometry" />
        </mxCell>
        <mxCell id="AUXNBVMDQpoTd1R2UJ2k-42" value="T" style="ellipse;whiteSpace=wrap;html=1;aspect=fixed;fillColor=#f5f5f5;fontColor=#333333;strokeColor=#666666;fontSize=16;fontStyle=3" parent="A3tYGPcPbJUXy6pTdbpV-4" vertex="1">
          <mxGeometry x="1108.3660130718954" y="245" width="36.33986928104575" height="36.33986928104575" as="geometry" />
        </mxCell>
        <mxCell id="AUXNBVMDQpoTd1R2UJ2k-43" value="Q" style="ellipse;whiteSpace=wrap;html=1;aspect=fixed;fillColor=#f5f5f5;fontColor=#333333;strokeColor=#666666;fontSize=16;fontStyle=3" parent="A3tYGPcPbJUXy6pTdbpV-4" vertex="1">
          <mxGeometry x="635.9477124183007" y="30" width="27.254901960784313" height="27.254901960784313" as="geometry" />
        </mxCell>
        <mxCell id="AUXNBVMDQpoTd1R2UJ2k-44" value="Q" style="ellipse;whiteSpace=wrap;html=1;aspect=fixed;fillColor=#f5f5f5;fontColor=#333333;strokeColor=#666666;fontSize=16;fontStyle=3" parent="A3tYGPcPbJUXy6pTdbpV-4" vertex="1">
          <mxGeometry x="635.9477124183007" y="268" width="27.254901960784313" height="27.254901960784313" as="geometry" />
        </mxCell>
        <mxCell id="AUXNBVMDQpoTd1R2UJ2k-45" value="S" style="ellipse;whiteSpace=wrap;html=1;aspect=fixed;fillColor=#f5f5f5;fontColor=#333333;strokeColor=#666666;fontSize=16;fontStyle=3" parent="A3tYGPcPbJUXy6pTdbpV-4" vertex="1">
          <mxGeometry x="445.16339869281046" y="170" width="27.254901960784313" height="27.254901960784313" as="geometry" />
        </mxCell>
      </root>
    </mxGraphModel>
  </diagram>
  <diagram id="kTH9O2sLgtLIZWyrixBC" name="第 5 页">
    <mxGraphModel dx="1036" dy="551" grid="1" gridSize="10" guides="1" tooltips="1" connect="1" arrows="1" fold="1" page="1" pageScale="1" pageWidth="827" pageHeight="1169" math="0" shadow="0">
      <root>
        <mxCell id="0" />
        <mxCell id="1" parent="0" />
        <mxCell id="ybpGPMZr5YKjfhWSroPB-1" value="" style="group;fontStyle=0;fontSize=14;" parent="1" vertex="1" connectable="0">
          <mxGeometry x="70" y="140" width="730" height="420" as="geometry" />
        </mxCell>
        <mxCell id="P6gZyh_JRId3LIHTe3sR-13" style="edgeStyle=orthogonalEdgeStyle;rounded=0;orthogonalLoop=1;jettySize=auto;html=1;fontSize=14;labelBorderColor=none;fontStyle=2" parent="ybpGPMZr5YKjfhWSroPB-1" source="P6gZyh_JRId3LIHTe3sR-5" target="P6gZyh_JRId3LIHTe3sR-12" edge="1">
          <mxGeometry relative="1" as="geometry" />
        </mxCell>
        <mxCell id="P6gZyh_JRId3LIHTe3sR-5" value="数据,标签" style="shape=cylinder3;whiteSpace=wrap;html=1;boundedLbl=1;backgroundOutline=1;size=15;fontSize=14;labelBorderColor=none;fontStyle=2;fillColor=#e6e6e6;" parent="ybpGPMZr5YKjfhWSroPB-1" vertex="1">
          <mxGeometry x="15.208333333333332" width="304.16666666666663" height="120" as="geometry" />
        </mxCell>
        <mxCell id="P6gZyh_JRId3LIHTe3sR-6" value="" style="group;fontSize=14;labelBorderColor=none;fontStyle=2" parent="ybpGPMZr5YKjfhWSroPB-1" vertex="1" connectable="0">
          <mxGeometry y="285" width="319.375" height="90" as="geometry" />
        </mxCell>
        <mxCell id="P6gZyh_JRId3LIHTe3sR-3" value="攻击模型" style="rounded=1;whiteSpace=wrap;html=1;movable=1;resizable=1;rotatable=1;deletable=1;editable=1;locked=0;connectable=1;fontSize=14;labelBorderColor=none;fontStyle=2" parent="P6gZyh_JRId3LIHTe3sR-6" vertex="1">
          <mxGeometry x="30.416666666666664" width="288.9583333333333" height="90" as="geometry" />
        </mxCell>
        <mxCell id="P6gZyh_JRId3LIHTe3sR-4" value="" style="image;html=1;image=img/lib/clip_art/people/Suit_Man_128x128.png;fontSize=14;labelBorderColor=none;fontStyle=2" parent="P6gZyh_JRId3LIHTe3sR-6" vertex="1">
          <mxGeometry x="30.416666666666664" y="11.25" width="106.45833333333333" height="67.5" as="geometry" />
        </mxCell>
        <mxCell id="P6gZyh_JRId3LIHTe3sR-10" value="" style="endArrow=classic;html=1;rounded=0;fontSize=14;labelBorderColor=none;fontStyle=2" parent="ybpGPMZr5YKjfhWSroPB-1" source="P6gZyh_JRId3LIHTe3sR-5" edge="1">
          <mxGeometry relative="1" as="geometry">
            <mxPoint x="167.29166666666666" y="120" as="sourcePoint" />
            <mxPoint x="167.29166666666666" y="285" as="targetPoint" />
          </mxGeometry>
        </mxCell>
        <mxCell id="P6gZyh_JRId3LIHTe3sR-11" value="真实标签" style="edgeLabel;resizable=0;html=1;;align=center;verticalAlign=middle;fontSize=14;labelBorderColor=none;fontStyle=2" parent="P6gZyh_JRId3LIHTe3sR-10" connectable="0" vertex="1">
          <mxGeometry relative="1" as="geometry">
            <mxPoint y="-6" as="offset" />
          </mxGeometry>
        </mxCell>
        <mxCell id="P6gZyh_JRId3LIHTe3sR-17" style="edgeStyle=orthogonalEdgeStyle;curved=1;rounded=0;orthogonalLoop=1;jettySize=auto;html=1;entryX=1;entryY=0.5;entryDx=0;entryDy=0;fontSize=14;labelBorderColor=none;fontStyle=2" parent="ybpGPMZr5YKjfhWSroPB-1" source="P6gZyh_JRId3LIHTe3sR-12" target="P6gZyh_JRId3LIHTe3sR-3" edge="1">
          <mxGeometry relative="1" as="geometry" />
        </mxCell>
        <mxCell id="P6gZyh_JRId3LIHTe3sR-12" value="目标模型" style="rounded=1;whiteSpace=wrap;html=1;fontSize=14;labelBorderColor=none;fontStyle=2" parent="ybpGPMZr5YKjfhWSroPB-1" vertex="1">
          <mxGeometry x="517.0833333333333" y="15" width="212.91666666666666" height="90" as="geometry" />
        </mxCell>
        <mxCell id="P6gZyh_JRId3LIHTe3sR-14" value="输入" style="text;html=1;align=center;verticalAlign=middle;resizable=0;points=[];autosize=1;strokeColor=none;fillColor=none;fontSize=14;labelBorderColor=none;fontStyle=2" parent="ybpGPMZr5YKjfhWSroPB-1" vertex="1">
          <mxGeometry x="372.60416666666663" y="12" width="50" height="30" as="geometry" />
        </mxCell>
        <mxCell id="P6gZyh_JRId3LIHTe3sR-19" value="样本x是否在 训练集中？" style="text;html=1;align=center;verticalAlign=middle;resizable=0;points=[];autosize=1;strokeColor=none;fillColor=none;fontSize=14;labelBorderColor=none;fontStyle=2" parent="ybpGPMZr5YKjfhWSroPB-1" vertex="1">
          <mxGeometry x="43.229166666666664" y="375" width="170" height="30" as="geometry" />
        </mxCell>
        <mxCell id="P6gZyh_JRId3LIHTe3sR-18" value="预测向量" style="text;html=1;align=center;verticalAlign=middle;resizable=0;points=[];autosize=1;fontSize=14;labelBorderColor=none;shadow=1;fillColor=default;fillStyle=auto;strokeColor=default;fontStyle=2" parent="ybpGPMZr5YKjfhWSroPB-1" vertex="1">
          <mxGeometry x="360" y="180" width="80" height="30" as="geometry" />
        </mxCell>
      </root>
    </mxGraphModel>
  </diagram>
  <diagram name="第 6 页" id="_j_kUaYbVtcETR8fpPIR">
    <mxGraphModel dx="2072" dy="-67" grid="1" gridSize="10" guides="1" tooltips="1" connect="1" arrows="1" fold="1" page="1" pageScale="1" pageWidth="827" pageHeight="1169" math="0" shadow="0">
      <root>
        <mxCell id="0" />
        <mxCell id="1" parent="0" />
        <mxCell id="rLI7IUfO7PY7BiGCldcz-7" value="" style="group;movable=1;resizable=1;rotatable=1;deletable=1;editable=1;locked=0;connectable=1;fontSize=20;fontStyle=0" vertex="1" connectable="0" parent="1">
          <mxGeometry x="210" y="1169" width="1025" height="389" as="geometry" />
        </mxCell>
        <mxCell id="DN6l3O-JHzGLnn9fir0D-4" value="" style="strokeWidth=2;shape=mxgraph.flowchart.annotation_2;align=center;labelPosition=right;pointerEvents=1;rounded=1;verticalAlign=middle;fontFamily=Helvetica;fontSize=20;fontStyle=0;labelBackgroundColor=default;container=0;" parent="rLI7IUfO7PY7BiGCldcz-7" vertex="1">
          <mxGeometry x="335" y="245" width="220" height="130" as="geometry" />
        </mxCell>
        <mxCell id="DN6l3O-JHzGLnn9fir0D-3" value="" style="strokeWidth=2;shape=mxgraph.flowchart.annotation_2;align=center;labelPosition=right;pointerEvents=1;rounded=1;verticalAlign=middle;fontFamily=Helvetica;fontSize=20;fontStyle=0;labelBackgroundColor=default;container=0;" parent="rLI7IUfO7PY7BiGCldcz-7" vertex="1">
          <mxGeometry x="320" y="59" width="250" height="111" as="geometry" />
        </mxCell>
        <mxCell id="a9yYiNyGNtTFoJg7CnP0-1" value="" style="strokeWidth=2;shape=mxgraph.flowchart.annotation_2;align=center;labelPosition=right;pointerEvents=1;rounded=1;verticalAlign=middle;fontFamily=Helvetica;fontSize=20;fontStyle=0;labelBackgroundColor=default;container=0;" parent="rLI7IUfO7PY7BiGCldcz-7" vertex="1">
          <mxGeometry x="50" y="110" width="180" height="190" as="geometry" />
        </mxCell>
        <mxCell id="a9yYiNyGNtTFoJg7CnP0-3" value="隐私攻击&#xa;" style="rounded=1;whiteSpace=wrap;align=center;verticalAlign=bottom;fontFamily=Helvetica;fontSize=20;fontStyle=0;labelBackgroundColor=default;container=0;" parent="rLI7IUfO7PY7BiGCldcz-7" vertex="1">
          <mxGeometry x="230" y="272" width="160" height="69" as="geometry" />
        </mxCell>
        <mxCell id="a9yYiNyGNtTFoJg7CnP0-5" value="预测阶段" style="text;align=center;verticalAlign=middle;resizable=0;points=[];autosize=1;fontFamily=Helvetica;fontSize=20;fontStyle=0;labelBackgroundColor=none;container=0;" parent="rLI7IUfO7PY7BiGCldcz-7" vertex="1">
          <mxGeometry x="135" y="265" width="100" height="40" as="geometry" />
        </mxCell>
        <mxCell id="DN6l3O-JHzGLnn9fir0D-10" value="隐私攻击方式" style="rounded=1;whiteSpace=wrap;align=center;verticalAlign=middle;fontFamily=Helvetica;fontSize=20;fontStyle=0;labelBackgroundColor=default;container=0;" parent="rLI7IUfO7PY7BiGCldcz-7" vertex="1">
          <mxGeometry y="165" width="120" height="80" as="geometry" />
        </mxCell>
        <mxCell id="a9yYiNyGNtTFoJg7CnP0-2" value="数据投毒攻击&#xa;" style="rounded=1;whiteSpace=wrap;align=center;verticalAlign=bottom;fontFamily=Helvetica;fontSize=20;fontStyle=0;labelBackgroundColor=default;container=0;" parent="rLI7IUfO7PY7BiGCldcz-7" vertex="1">
          <mxGeometry x="230" y="75" width="160" height="66" as="geometry" />
        </mxCell>
        <mxCell id="a9yYiNyGNtTFoJg7CnP0-4" value="训练阶段" style="text;align=center;verticalAlign=middle;resizable=0;points=[];autosize=1;fontFamily=Helvetica;fontSize=20;fontStyle=0;labelBackgroundColor=default;container=0;" parent="rLI7IUfO7PY7BiGCldcz-7" vertex="1">
          <mxGeometry x="135" y="75" width="100" height="40" as="geometry" />
        </mxCell>
        <mxCell id="a9yYiNyGNtTFoJg7CnP0-27" value="数据隐私" style="text;align=center;verticalAlign=middle;resizable=0;points=[];autosize=1;fontFamily=Helvetica;fontSize=20;fontStyle=0;labelBackgroundColor=default;container=0;" parent="rLI7IUfO7PY7BiGCldcz-7" vertex="1">
          <mxGeometry x="445" y="205" width="100" height="40" as="geometry" />
        </mxCell>
        <mxCell id="DN6l3O-JHzGLnn9fir0D-11" value="模型隐私" style="text;align=center;verticalAlign=middle;resizable=0;points=[];autosize=1;fontFamily=Helvetica;fontSize=20;fontStyle=0;labelBackgroundColor=default;container=0;" parent="rLI7IUfO7PY7BiGCldcz-7" vertex="1">
          <mxGeometry x="445" y="335" width="100" height="40" as="geometry" />
        </mxCell>
        <mxCell id="a9yYiNyGNtTFoJg7CnP0-15" value="数据投毒" style="text;align=center;verticalAlign=middle;resizable=0;points=[];autosize=1;fontFamily=Helvetica;fontSize=20;fontStyle=0;textShadow=0;labelBackgroundColor=none;container=0;" parent="rLI7IUfO7PY7BiGCldcz-7" vertex="1">
          <mxGeometry x="450" y="19" width="100" height="40" as="geometry" />
        </mxCell>
        <mxCell id="DN6l3O-JHzGLnn9fir0D-28" value="模型投毒" style="text;align=center;verticalAlign=middle;resizable=0;points=[];autosize=1;fontFamily=Helvetica;fontSize=20;fontStyle=0;textShadow=0;labelBackgroundColor=none;container=0;" parent="rLI7IUfO7PY7BiGCldcz-7" vertex="1">
          <mxGeometry x="450" y="134" width="100" height="40" as="geometry" />
        </mxCell>
        <mxCell id="a9yYiNyGNtTFoJg7CnP0-30" value="模型提取攻击" style="rounded=1;whiteSpace=wrap;align=center;verticalAlign=middle;fontFamily=Helvetica;fontSize=20;fontStyle=0;labelBackgroundColor=default;container=0;" parent="rLI7IUfO7PY7BiGCldcz-7" vertex="1">
          <mxGeometry x="550" y="349" width="260" height="40" as="geometry" />
        </mxCell>
        <mxCell id="DN6l3O-JHzGLnn9fir0D-9" value="" style="strokeWidth=2;shape=mxgraph.flowchart.annotation_2;align=center;labelPosition=right;pointerEvents=1;rounded=1;verticalAlign=middle;fontFamily=Helvetica;fontSize=20;fontStyle=0;labelBackgroundColor=default;container=0;" parent="rLI7IUfO7PY7BiGCldcz-7" vertex="1">
          <mxGeometry x="830" y="130" width="60" height="170" as="geometry" />
        </mxCell>
        <mxCell id="DN6l3O-JHzGLnn9fir0D-14" value="模型逆向攻击" style="rounded=1;whiteSpace=wrap;align=center;verticalAlign=middle;fontFamily=Helvetica;fontSize=20;fontStyle=0;labelBackgroundColor=default;container=0;" parent="rLI7IUfO7PY7BiGCldcz-7" vertex="1">
          <mxGeometry x="870" y="109" width="145" height="40" as="geometry" />
        </mxCell>
        <mxCell id="rLI7IUfO7PY7BiGCldcz-1" value="后门攻击" style="rounded=1;whiteSpace=wrap;align=center;verticalAlign=middle;fontFamily=Helvetica;fontSize=20;fontStyle=0;labelBackgroundColor=default;container=0;" vertex="1" parent="rLI7IUfO7PY7BiGCldcz-7">
          <mxGeometry x="570" y="141" width="223" height="40" as="geometry" />
        </mxCell>
        <mxCell id="rLI7IUfO7PY7BiGCldcz-3" value="" style="group;fontSize=20;fontStyle=0" vertex="1" connectable="0" parent="rLI7IUfO7PY7BiGCldcz-7">
          <mxGeometry x="570" width="155" height="134" as="geometry" />
        </mxCell>
        <mxCell id="DN6l3O-JHzGLnn9fir0D-12" value="标签反转攻击" style="rounded=1;whiteSpace=wrap;align=center;verticalAlign=middle;fontFamily=Helvetica;fontSize=20;fontStyle=0;labelBackgroundColor=default;container=0;" parent="rLI7IUfO7PY7BiGCldcz-3" vertex="1">
          <mxGeometry x="10" width="145" height="40" as="geometry" />
        </mxCell>
        <mxCell id="a9yYiNyGNtTFoJg7CnP0-22" value="" style="strokeWidth=2;shape=mxgraph.flowchart.annotation_1;align=center;pointerEvents=1;rounded=1;verticalAlign=middle;fontFamily=Helvetica;fontSize=20;fontStyle=0;labelBackgroundColor=default;container=0;" parent="rLI7IUfO7PY7BiGCldcz-3" vertex="1">
          <mxGeometry y="10" width="10" height="100" as="geometry" />
        </mxCell>
        <mxCell id="DN6l3O-JHzGLnn9fir0D-13" value="干净标签攻击" style="rounded=1;whiteSpace=wrap;align=center;verticalAlign=middle;fontFamily=Helvetica;fontSize=20;fontStyle=0;labelBackgroundColor=default;container=0;" parent="rLI7IUfO7PY7BiGCldcz-3" vertex="1">
          <mxGeometry x="10" y="94" width="145" height="40" as="geometry" />
        </mxCell>
        <mxCell id="a9yYiNyGNtTFoJg7CnP0-34" value="成员推断攻击" style="rounded=1;whiteSpace=wrap;align=center;verticalAlign=middle;fontFamily=Helvetica;fontSize=20;fontStyle=0;labelBackgroundColor=default;container=0;" parent="rLI7IUfO7PY7BiGCldcz-7" vertex="1">
          <mxGeometry x="605" y="274" width="230" height="40" as="geometry" />
        </mxCell>
        <mxCell id="DN6l3O-JHzGLnn9fir0D-2" value="" style="strokeWidth=2;shape=mxgraph.flowchart.annotation_1;align=center;pointerEvents=1;rounded=1;verticalAlign=middle;fontFamily=Helvetica;fontSize=20;fontStyle=0;labelBackgroundColor=default;container=0;" parent="rLI7IUfO7PY7BiGCldcz-7" vertex="1">
          <mxGeometry x="555" y="206" width="50" height="77" as="geometry" />
        </mxCell>
        <mxCell id="a9yYiNyGNtTFoJg7CnP0-32" value="数据提取攻击" style="rounded=1;whiteSpace=wrap;align=center;verticalAlign=middle;fontFamily=Helvetica;fontSize=20;fontStyle=0;labelBackgroundColor=default;container=0;" parent="rLI7IUfO7PY7BiGCldcz-7" vertex="1">
          <mxGeometry x="605" y="194" width="230" height="40" as="geometry" />
        </mxCell>
        <mxCell id="DN6l3O-JHzGLnn9fir0D-15" value="阴影模型攻击" style="rounded=1;whiteSpace=wrap;align=center;verticalAlign=middle;fontFamily=Helvetica;fontSize=20;fontStyle=0;labelBackgroundColor=default;container=0;" parent="rLI7IUfO7PY7BiGCldcz-7" vertex="1">
          <mxGeometry x="880" y="194" width="145" height="40" as="geometry" />
        </mxCell>
        <mxCell id="DN6l3O-JHzGLnn9fir0D-16" value="模型记忆攻击" style="rounded=1;whiteSpace=wrap;align=center;verticalAlign=middle;fontFamily=Helvetica;fontSize=20;fontStyle=0;labelBackgroundColor=default;container=0;" parent="rLI7IUfO7PY7BiGCldcz-7" vertex="1">
          <mxGeometry x="880" y="283" width="145" height="40" as="geometry" />
        </mxCell>
      </root>
    </mxGraphModel>
  </diagram>
  <diagram id="OqJtLK2a9vhLC6Y-I1FM" name="第 8 页">
    <mxGraphModel dx="1036" dy="551" grid="0" gridSize="10" guides="1" tooltips="1" connect="1" arrows="1" fold="1" page="1" pageScale="1" pageWidth="850" pageHeight="1100" math="0" shadow="0">
      <root>
        <mxCell id="0" />
        <mxCell id="1" parent="0" />
        <mxCell id="vii2HBuVQhhGr60J-6lM-1" value="" style="group;fontSize=14;fontStyle=2;verticalAlign=middle;" parent="1" vertex="1" connectable="0">
          <mxGeometry x="110" y="660" width="620" height="292.81249999999994" as="geometry" />
        </mxCell>
        <mxCell id="QPK80KhRFUT-r9JfEoXM-1" style="edgeStyle=orthogonalEdgeStyle;rounded=0;orthogonalLoop=1;jettySize=auto;html=1;entryX=0.25;entryY=0;entryDx=0;entryDy=0;fontSize=14;fontStyle=2;verticalAlign=middle;" parent="vii2HBuVQhhGr60J-6lM-1" source="QPK80KhRFUT-r9JfEoXM-12" target="QPK80KhRFUT-r9JfEoXM-3" edge="1">
          <mxGeometry relative="1" as="geometry" />
        </mxCell>
        <mxCell id="QPK80KhRFUT-r9JfEoXM-2" style="edgeStyle=orthogonalEdgeStyle;rounded=0;orthogonalLoop=1;jettySize=auto;html=1;entryX=0.25;entryY=1;entryDx=0;entryDy=0;fontSize=14;fontStyle=2;verticalAlign=middle;" parent="vii2HBuVQhhGr60J-6lM-1" source="QPK80KhRFUT-r9JfEoXM-12" target="QPK80KhRFUT-r9JfEoXM-8" edge="1">
          <mxGeometry relative="1" as="geometry" />
        </mxCell>
        <mxCell id="QPK80KhRFUT-r9JfEoXM-3" value="目标模型" style="rounded=1;whiteSpace=wrap;html=1;fontSize=14;labelBorderColor=none;fontStyle=2;verticalAlign=middle;" parent="vii2HBuVQhhGr60J-6lM-1" vertex="1">
          <mxGeometry x="370" width="140" height="43.5" as="geometry" />
        </mxCell>
        <mxCell id="QPK80KhRFUT-r9JfEoXM-4" value="输入" style="text;html=1;align=center;verticalAlign=middle;resizable=0;points=[];autosize=1;strokeColor=none;fillColor=none;fontSize=14;labelBorderColor=none;fontStyle=2" parent="vii2HBuVQhhGr60J-6lM-1" vertex="1">
          <mxGeometry x="227" y="44.5" width="46" height="29" as="geometry" />
        </mxCell>
        <mxCell id="vii2HBuVQhhGr60J-6lM-2" style="edgeStyle=none;rounded=0;orthogonalLoop=1;jettySize=auto;html=1;entryX=1;entryY=0.75;entryDx=0;entryDy=0;fontSize=14;fontStyle=2;verticalAlign=middle;" parent="vii2HBuVQhhGr60J-6lM-1" source="QPK80KhRFUT-r9JfEoXM-6" target="QPK80KhRFUT-r9JfEoXM-14" edge="1">
          <mxGeometry relative="1" as="geometry" />
        </mxCell>
        <mxCell id="QPK80KhRFUT-r9JfEoXM-6" value="预测向量T" style="text;html=1;align=center;verticalAlign=middle;resizable=0;points=[];autosize=1;fontSize=14;labelBorderColor=none;shadow=1;fillColor=default;fillStyle=auto;strokeColor=default;fontStyle=2" parent="vii2HBuVQhhGr60J-6lM-1" vertex="1">
          <mxGeometry x="530" y="233.81" width="83" height="29" as="geometry" />
        </mxCell>
        <mxCell id="QPK80KhRFUT-r9JfEoXM-8" value="遗忘模型" style="rounded=1;whiteSpace=wrap;html=1;fontSize=14;labelBorderColor=none;fontStyle=2;verticalAlign=middle;" parent="vii2HBuVQhhGr60J-6lM-1" vertex="1">
          <mxGeometry x="370" y="79.75" width="140" height="43.5" as="geometry" />
        </mxCell>
        <mxCell id="QPK80KhRFUT-r9JfEoXM-9" style="edgeStyle=orthogonalEdgeStyle;rounded=0;orthogonalLoop=1;jettySize=auto;html=1;entryX=1;entryY=0.5;entryDx=0;entryDy=0;fontSize=14;fontStyle=2;verticalAlign=middle;" parent="vii2HBuVQhhGr60J-6lM-1" source="QPK80KhRFUT-r9JfEoXM-10" target="QPK80KhRFUT-r9JfEoXM-14" edge="1">
          <mxGeometry relative="1" as="geometry" />
        </mxCell>
        <mxCell id="QPK80KhRFUT-r9JfEoXM-10" value="预测向量U" style="text;html=1;align=center;verticalAlign=middle;resizable=0;points=[];autosize=1;fontSize=14;labelBorderColor=none;shadow=1;fillColor=default;fillStyle=auto;strokeColor=default;fontStyle=2" parent="vii2HBuVQhhGr60J-6lM-1" vertex="1">
          <mxGeometry x="409" y="182.25" width="84" height="29" as="geometry" />
        </mxCell>
        <mxCell id="QPK80KhRFUT-r9JfEoXM-11" value="" style="group;fontSize=14;fontStyle=2;verticalAlign=middle;" parent="vii2HBuVQhhGr60J-6lM-1" vertex="1" connectable="0">
          <mxGeometry y="36.25" width="220" height="256.56249999999994" as="geometry" />
        </mxCell>
        <mxCell id="QPK80KhRFUT-r9JfEoXM-12" value="数据,标签" style="shape=cylinder3;whiteSpace=wrap;html=1;boundedLbl=1;backgroundOutline=1;size=15;fontSize=14;labelBorderColor=none;fontStyle=2;shadow=1;fillColor=#e6e6e6;verticalAlign=middle;" parent="QPK80KhRFUT-r9JfEoXM-11" vertex="1">
          <mxGeometry x="10" width="200" height="72.49999999999999" as="geometry" />
        </mxCell>
        <mxCell id="QPK80KhRFUT-r9JfEoXM-13" value="" style="group;fontSize=14;labelBorderColor=none;fontStyle=2;verticalAlign=middle;" parent="QPK80KhRFUT-r9JfEoXM-11" vertex="1" connectable="0">
          <mxGeometry y="172.18749999999994" width="210" height="54.374999999999986" as="geometry" />
        </mxCell>
        <mxCell id="QPK80KhRFUT-r9JfEoXM-14" value="攻击模型" style="rounded=1;whiteSpace=wrap;html=1;movable=1;resizable=1;rotatable=1;deletable=1;editable=1;locked=0;connectable=1;fontSize=14;labelBorderColor=none;fontStyle=2;verticalAlign=middle;" parent="QPK80KhRFUT-r9JfEoXM-13" vertex="1">
          <mxGeometry x="20" width="190" height="54.374999999999986" as="geometry" />
        </mxCell>
        <mxCell id="QPK80KhRFUT-r9JfEoXM-15" value="" style="image;html=1;image=img/lib/clip_art/people/Suit_Man_Green_128x128.png;fontSize=14;fontStyle=2;verticalAlign=middle;" parent="QPK80KhRFUT-r9JfEoXM-13" vertex="1">
          <mxGeometry x="30" y="9.062499999999998" width="50" height="40.78124999999999" as="geometry" />
        </mxCell>
        <mxCell id="QPK80KhRFUT-r9JfEoXM-16" value="" style="endArrow=classic;html=1;rounded=0;fontSize=14;labelBorderColor=none;fontStyle=2;verticalAlign=middle;" parent="QPK80KhRFUT-r9JfEoXM-11" source="QPK80KhRFUT-r9JfEoXM-12" edge="1">
          <mxGeometry relative="1" as="geometry">
            <mxPoint x="110" y="72.49999999999999" as="sourcePoint" />
            <mxPoint x="110" y="172.18749999999994" as="targetPoint" />
          </mxGeometry>
        </mxCell>
        <mxCell id="QPK80KhRFUT-r9JfEoXM-17" value="真实标签" style="edgeLabel;resizable=0;html=1;;align=center;verticalAlign=middle;fontSize=14;labelBorderColor=none;fontStyle=2" parent="QPK80KhRFUT-r9JfEoXM-16" connectable="0" vertex="1">
          <mxGeometry relative="1" as="geometry">
            <mxPoint y="-6" as="offset" />
          </mxGeometry>
        </mxCell>
        <mxCell id="QPK80KhRFUT-r9JfEoXM-18" value="样本x是否在 训练集中？" style="text;html=1;align=center;verticalAlign=middle;resizable=0;points=[];autosize=1;strokeColor=none;fillColor=none;fontSize=14;labelBorderColor=none;fontStyle=2" parent="QPK80KhRFUT-r9JfEoXM-11" vertex="1">
          <mxGeometry x="27" y="227.56249999999994" width="169" height="29" as="geometry" />
        </mxCell>
        <mxCell id="QPK80KhRFUT-r9JfEoXM-19" style="edgeStyle=orthogonalEdgeStyle;rounded=0;orthogonalLoop=1;jettySize=auto;html=1;entryX=0.465;entryY=0.051;entryDx=0;entryDy=0;entryPerimeter=0;fontSize=14;fontStyle=2;verticalAlign=middle;" parent="vii2HBuVQhhGr60J-6lM-1" source="QPK80KhRFUT-r9JfEoXM-3" target="QPK80KhRFUT-r9JfEoXM-6" edge="1">
          <mxGeometry relative="1" as="geometry" />
        </mxCell>
        <mxCell id="QPK80KhRFUT-r9JfEoXM-20" style="edgeStyle=none;rounded=0;orthogonalLoop=1;jettySize=auto;html=1;exitX=0.5;exitY=1;exitDx=0;exitDy=0;fontSize=14;fontStyle=2;verticalAlign=middle;" parent="vii2HBuVQhhGr60J-6lM-1" source="QPK80KhRFUT-r9JfEoXM-8" edge="1">
          <mxGeometry relative="1" as="geometry">
            <mxPoint x="441" y="183.42499999999998" as="targetPoint" />
          </mxGeometry>
        </mxCell>
      </root>
    </mxGraphModel>
  </diagram>
  <diagram id="XiN1sv94xXgRzTTiaQKN" name="第 9 页">
    <mxGraphModel dx="1036" dy="551" grid="1" gridSize="10" guides="1" tooltips="1" connect="1" arrows="1" fold="1" page="0" pageScale="1" pageWidth="850" pageHeight="1100" math="0" shadow="0">
      <root>
        <mxCell id="0" />
        <mxCell id="1" parent="0" />
        <mxCell id="SNS3hZ5IdxOkub6SCiW9-49" value="" style="group;labelBackgroundColor=default;" parent="1" vertex="1" connectable="0">
          <mxGeometry x="210" y="10" width="890" height="510" as="geometry" />
        </mxCell>
        <mxCell id="SNS3hZ5IdxOkub6SCiW9-1" value="不信任的Aggregator" style="shape=cylinder3;whiteSpace=wrap;html=1;boundedLbl=1;backgroundOutline=1;size=15;movable=1;resizable=1;rotatable=1;deletable=1;editable=1;locked=0;connectable=1;fillColor=#f8cecc;strokeColor=#b85450;labelBackgroundColor=none;fontSize=14;" parent="SNS3hZ5IdxOkub6SCiW9-49" vertex="1">
          <mxGeometry x="80" width="160" height="110" as="geometry" />
        </mxCell>
        <mxCell id="SNS3hZ5IdxOkub6SCiW9-2" value="" style="rounded=1;whiteSpace=wrap;html=1;dashed=1;strokeWidth=2;movable=1;resizable=1;rotatable=1;deletable=1;editable=1;locked=0;connectable=1;fillColor=#d5e8d4;strokeColor=#82b366;labelBackgroundColor=default;" parent="SNS3hZ5IdxOkub6SCiW9-49" vertex="1">
          <mxGeometry y="180" width="320" height="280" as="geometry" />
        </mxCell>
        <mxCell id="SNS3hZ5IdxOkub6SCiW9-4" value="noise" style="ellipse;shape=cloud;whiteSpace=wrap;html=1;movable=1;resizable=1;rotatable=1;deletable=1;editable=1;locked=0;connectable=1;labelBackgroundColor=default;fontSize=14;" parent="SNS3hZ5IdxOkub6SCiW9-49" vertex="1">
          <mxGeometry x="10" y="160" width="100" height="70" as="geometry" />
        </mxCell>
        <mxCell id="SNS3hZ5IdxOkub6SCiW9-5" value="noise" style="ellipse;shape=cloud;whiteSpace=wrap;html=1;movable=1;resizable=1;rotatable=1;deletable=1;editable=1;locked=0;connectable=1;labelBackgroundColor=default;fontSize=14;" parent="SNS3hZ5IdxOkub6SCiW9-49" vertex="1">
          <mxGeometry x="110" y="160" width="100" height="70" as="geometry" />
        </mxCell>
        <mxCell id="SNS3hZ5IdxOkub6SCiW9-6" value="noise" style="ellipse;shape=cloud;whiteSpace=wrap;html=1;movable=1;resizable=1;rotatable=1;deletable=1;editable=1;locked=0;connectable=1;labelBackgroundColor=default;fontSize=14;" parent="SNS3hZ5IdxOkub6SCiW9-49" vertex="1">
          <mxGeometry x="210" y="160" width="100" height="70" as="geometry" />
        </mxCell>
        <mxCell id="SNS3hZ5IdxOkub6SCiW9-29" style="edgeStyle=orthogonalEdgeStyle;rounded=0;orthogonalLoop=1;jettySize=auto;html=1;movable=1;resizable=1;rotatable=1;deletable=1;editable=1;locked=0;connectable=1;labelBackgroundColor=default;" parent="SNS3hZ5IdxOkub6SCiW9-49" source="SNS3hZ5IdxOkub6SCiW9-7" target="SNS3hZ5IdxOkub6SCiW9-4" edge="1">
          <mxGeometry relative="1" as="geometry">
            <Array as="points">
              <mxPoint x="50" y="210" />
              <mxPoint x="50" y="210" />
            </Array>
          </mxGeometry>
        </mxCell>
        <mxCell id="SNS3hZ5IdxOkub6SCiW9-7" value="" style="shape=actor;whiteSpace=wrap;html=1;movable=1;resizable=1;rotatable=1;deletable=1;editable=1;locked=0;connectable=1;labelBackgroundColor=default;" parent="SNS3hZ5IdxOkub6SCiW9-49" vertex="1">
          <mxGeometry x="40" y="340" width="40" height="70" as="geometry" />
        </mxCell>
        <mxCell id="SNS3hZ5IdxOkub6SCiW9-8" value="" style="shape=actor;whiteSpace=wrap;html=1;movable=1;resizable=1;rotatable=1;deletable=1;editable=1;locked=0;connectable=1;labelBackgroundColor=default;" parent="SNS3hZ5IdxOkub6SCiW9-49" vertex="1">
          <mxGeometry x="250" y="340" width="40" height="70" as="geometry" />
        </mxCell>
        <mxCell id="SNS3hZ5IdxOkub6SCiW9-34" style="edgeStyle=elbowEdgeStyle;rounded=0;orthogonalLoop=1;jettySize=auto;html=1;movable=1;resizable=1;rotatable=1;deletable=1;editable=1;locked=0;connectable=1;labelBackgroundColor=default;" parent="SNS3hZ5IdxOkub6SCiW9-49" source="SNS3hZ5IdxOkub6SCiW9-9" target="SNS3hZ5IdxOkub6SCiW9-5" edge="1">
          <mxGeometry relative="1" as="geometry" />
        </mxCell>
        <mxCell id="SNS3hZ5IdxOkub6SCiW9-9" value="" style="shape=actor;whiteSpace=wrap;html=1;movable=1;resizable=1;rotatable=1;deletable=1;editable=1;locked=0;connectable=1;labelBackgroundColor=default;" parent="SNS3hZ5IdxOkub6SCiW9-49" vertex="1">
          <mxGeometry x="150" y="340" width="40" height="70" as="geometry" />
        </mxCell>
        <mxCell id="SNS3hZ5IdxOkub6SCiW9-10" value="&lt;font style=&quot;font-size: 14px;&quot;&gt;&lt;span&gt;本地隐私&lt;/span&gt;&lt;/font&gt;" style="text;html=1;align=center;verticalAlign=middle;resizable=1;points=[];autosize=1;strokeColor=none;fillColor=none;movable=1;rotatable=1;deletable=1;editable=1;locked=0;connectable=1;labelBackgroundColor=default;fontStyle=0" parent="SNS3hZ5IdxOkub6SCiW9-49" vertex="1">
          <mxGeometry x="120" y="480" width="80" height="30" as="geometry" />
        </mxCell>
        <mxCell id="SNS3hZ5IdxOkub6SCiW9-11" value="" style="rounded=1;whiteSpace=wrap;html=1;arcSize=17;movable=1;resizable=1;rotatable=1;deletable=1;editable=1;locked=0;connectable=1;fillColor=#d5e8d4;strokeColor=#82b366;labelBackgroundColor=default;dashed=1;strokeWidth=2;perimeterSpacing=4;" parent="SNS3hZ5IdxOkub6SCiW9-49" vertex="1">
          <mxGeometry x="400" y="40" width="320" height="420" as="geometry" />
        </mxCell>
        <mxCell id="SNS3hZ5IdxOkub6SCiW9-12" value="可信任的Aggregator" style="shape=cylinder3;whiteSpace=wrap;html=1;boundedLbl=1;backgroundOutline=1;size=15;movable=1;resizable=1;rotatable=1;deletable=1;editable=1;locked=0;connectable=1;labelBackgroundColor=default;fontSize=14;" parent="SNS3hZ5IdxOkub6SCiW9-49" vertex="1">
          <mxGeometry x="485" y="110" width="150" height="110" as="geometry" />
        </mxCell>
        <mxCell id="SNS3hZ5IdxOkub6SCiW9-14" value="" style="shape=actor;whiteSpace=wrap;html=1;movable=1;resizable=1;rotatable=1;deletable=1;editable=1;locked=0;connectable=1;labelBackgroundColor=default;" parent="SNS3hZ5IdxOkub6SCiW9-49" vertex="1">
          <mxGeometry x="445" y="340" width="40" height="70" as="geometry" />
        </mxCell>
        <mxCell id="SNS3hZ5IdxOkub6SCiW9-15" value="" style="shape=actor;whiteSpace=wrap;html=1;movable=1;resizable=1;rotatable=1;deletable=1;editable=1;locked=0;connectable=1;labelBackgroundColor=default;" parent="SNS3hZ5IdxOkub6SCiW9-49" vertex="1">
          <mxGeometry x="540" y="340" width="40" height="70" as="geometry" />
        </mxCell>
        <mxCell id="SNS3hZ5IdxOkub6SCiW9-16" value="" style="shape=actor;whiteSpace=wrap;html=1;movable=1;resizable=1;rotatable=1;deletable=1;editable=1;locked=0;connectable=1;labelBackgroundColor=default;" parent="SNS3hZ5IdxOkub6SCiW9-49" vertex="1">
          <mxGeometry x="635" y="340" width="40" height="70" as="geometry" />
        </mxCell>
        <mxCell id="SNS3hZ5IdxOkub6SCiW9-19" value="" style="shape=actor;whiteSpace=wrap;html=1;movable=1;resizable=1;rotatable=1;deletable=1;editable=1;locked=0;connectable=1;fillColor=#f8cecc;strokeColor=#b85450;labelBackgroundColor=default;" parent="SNS3hZ5IdxOkub6SCiW9-49" vertex="1">
          <mxGeometry x="810" y="130" width="40" height="70" as="geometry" />
        </mxCell>
        <mxCell id="SNS3hZ5IdxOkub6SCiW9-20" style="edgeStyle=orthogonalEdgeStyle;rounded=0;orthogonalLoop=1;jettySize=auto;html=1;exitX=0.4;exitY=0.1;exitDx=0;exitDy=0;exitPerimeter=0;entryX=0.145;entryY=1;entryDx=0;entryDy=-4.35;entryPerimeter=0;movable=1;resizable=1;rotatable=1;deletable=1;editable=1;locked=0;connectable=1;labelBackgroundColor=default;" parent="SNS3hZ5IdxOkub6SCiW9-49" source="SNS3hZ5IdxOkub6SCiW9-4" target="SNS3hZ5IdxOkub6SCiW9-1" edge="1">
          <mxGeometry relative="1" as="geometry">
            <Array as="points">
              <mxPoint x="50" y="135" />
              <mxPoint x="103" y="135" />
            </Array>
          </mxGeometry>
        </mxCell>
        <mxCell id="SNS3hZ5IdxOkub6SCiW9-25" style="edgeStyle=orthogonalEdgeStyle;rounded=0;orthogonalLoop=1;jettySize=auto;html=1;exitX=0.625;exitY=0.2;exitDx=0;exitDy=0;exitPerimeter=0;entryX=0.855;entryY=1;entryDx=0;entryDy=-4.35;entryPerimeter=0;movable=1;resizable=1;rotatable=1;deletable=1;editable=1;locked=0;connectable=1;labelBackgroundColor=default;" parent="SNS3hZ5IdxOkub6SCiW9-49" source="SNS3hZ5IdxOkub6SCiW9-6" target="SNS3hZ5IdxOkub6SCiW9-1" edge="1">
          <mxGeometry relative="1" as="geometry" />
        </mxCell>
        <mxCell id="SNS3hZ5IdxOkub6SCiW9-27" style="edgeStyle=orthogonalEdgeStyle;rounded=0;orthogonalLoop=1;jettySize=auto;html=1;exitX=0.4;exitY=0.1;exitDx=0;exitDy=0;exitPerimeter=0;entryX=0.5;entryY=1;entryDx=0;entryDy=0;entryPerimeter=0;movable=1;resizable=1;rotatable=1;deletable=1;editable=1;locked=0;connectable=1;labelBackgroundColor=default;" parent="SNS3hZ5IdxOkub6SCiW9-49" source="SNS3hZ5IdxOkub6SCiW9-5" target="SNS3hZ5IdxOkub6SCiW9-1" edge="1">
          <mxGeometry relative="1" as="geometry" />
        </mxCell>
        <mxCell id="SNS3hZ5IdxOkub6SCiW9-35" style="edgeStyle=elbowEdgeStyle;rounded=0;orthogonalLoop=1;jettySize=auto;html=1;entryX=0.55;entryY=0.95;entryDx=0;entryDy=0;entryPerimeter=0;movable=1;resizable=1;rotatable=1;deletable=1;editable=1;locked=0;connectable=1;labelBackgroundColor=default;" parent="SNS3hZ5IdxOkub6SCiW9-49" source="SNS3hZ5IdxOkub6SCiW9-8" target="SNS3hZ5IdxOkub6SCiW9-6" edge="1">
          <mxGeometry relative="1" as="geometry" />
        </mxCell>
        <mxCell id="SNS3hZ5IdxOkub6SCiW9-36" style="edgeStyle=elbowEdgeStyle;rounded=0;orthogonalLoop=1;jettySize=auto;html=1;entryX=0.145;entryY=1;entryDx=0;entryDy=-4.35;entryPerimeter=0;movable=1;resizable=1;rotatable=1;deletable=1;editable=1;locked=0;connectable=1;labelBackgroundColor=default;" parent="SNS3hZ5IdxOkub6SCiW9-49" source="SNS3hZ5IdxOkub6SCiW9-14" target="SNS3hZ5IdxOkub6SCiW9-12" edge="1">
          <mxGeometry relative="1" as="geometry" />
        </mxCell>
        <mxCell id="SNS3hZ5IdxOkub6SCiW9-37" style="edgeStyle=elbowEdgeStyle;rounded=0;orthogonalLoop=1;jettySize=auto;html=1;entryX=0.855;entryY=1;entryDx=0;entryDy=-4.35;entryPerimeter=0;movable=1;resizable=1;rotatable=1;deletable=1;editable=1;locked=0;connectable=1;labelBackgroundColor=default;" parent="SNS3hZ5IdxOkub6SCiW9-49" source="SNS3hZ5IdxOkub6SCiW9-16" target="SNS3hZ5IdxOkub6SCiW9-12" edge="1">
          <mxGeometry relative="1" as="geometry" />
        </mxCell>
        <mxCell id="SNS3hZ5IdxOkub6SCiW9-38" style="edgeStyle=elbowEdgeStyle;rounded=0;orthogonalLoop=1;jettySize=auto;html=1;entryX=0.5;entryY=1;entryDx=0;entryDy=0;entryPerimeter=0;movable=1;resizable=1;rotatable=1;deletable=1;editable=1;locked=0;connectable=1;labelBackgroundColor=default;" parent="SNS3hZ5IdxOkub6SCiW9-49" source="SNS3hZ5IdxOkub6SCiW9-51" target="SNS3hZ5IdxOkub6SCiW9-12" edge="1">
          <mxGeometry relative="1" as="geometry" />
        </mxCell>
        <mxCell id="SNS3hZ5IdxOkub6SCiW9-39" style="edgeStyle=elbowEdgeStyle;rounded=0;orthogonalLoop=1;jettySize=auto;html=1;entryX=1;entryY=0.5;entryDx=0;entryDy=0;entryPerimeter=0;movable=1;resizable=1;rotatable=1;deletable=1;editable=1;locked=0;connectable=1;labelBackgroundColor=default;" parent="SNS3hZ5IdxOkub6SCiW9-49" source="SNS3hZ5IdxOkub6SCiW9-19" target="SNS3hZ5IdxOkub6SCiW9-12" edge="1">
          <mxGeometry relative="1" as="geometry" />
        </mxCell>
        <mxCell id="SNS3hZ5IdxOkub6SCiW9-45" style="edgeStyle=elbowEdgeStyle;rounded=0;orthogonalLoop=1;jettySize=auto;html=1;exitX=0.875;exitY=0.5;exitDx=0;exitDy=0;exitPerimeter=0;entryX=0.5;entryY=0;entryDx=0;entryDy=0;movable=1;resizable=1;rotatable=1;deletable=1;editable=1;locked=0;connectable=1;labelBackgroundColor=default;" parent="SNS3hZ5IdxOkub6SCiW9-49" source="SNS3hZ5IdxOkub6SCiW9-40" target="SNS3hZ5IdxOkub6SCiW9-19" edge="1">
          <mxGeometry relative="1" as="geometry">
            <Array as="points">
              <mxPoint x="830" y="100" />
            </Array>
          </mxGeometry>
        </mxCell>
        <mxCell id="SNS3hZ5IdxOkub6SCiW9-40" value="noise" style="ellipse;shape=cloud;whiteSpace=wrap;html=1;movable=1;resizable=1;rotatable=1;deletable=1;editable=1;locked=0;connectable=1;labelBackgroundColor=default;fontSize=14;" parent="SNS3hZ5IdxOkub6SCiW9-49" vertex="1">
          <mxGeometry x="670" y="50" width="100" height="70" as="geometry" />
        </mxCell>
        <mxCell id="SNS3hZ5IdxOkub6SCiW9-43" style="edgeStyle=elbowEdgeStyle;rounded=0;orthogonalLoop=1;jettySize=auto;html=1;exitX=0.5;exitY=0;exitDx=0;exitDy=0;exitPerimeter=0;entryX=0.16;entryY=0.55;entryDx=0;entryDy=0;entryPerimeter=0;movable=1;resizable=1;rotatable=1;deletable=1;editable=1;locked=0;connectable=1;labelBackgroundColor=default;" parent="SNS3hZ5IdxOkub6SCiW9-49" source="SNS3hZ5IdxOkub6SCiW9-12" target="SNS3hZ5IdxOkub6SCiW9-40" edge="1">
          <mxGeometry relative="1" as="geometry">
            <Array as="points">
              <mxPoint x="560" y="85" />
              <mxPoint x="560" y="90" />
            </Array>
          </mxGeometry>
        </mxCell>
        <mxCell id="SNS3hZ5IdxOkub6SCiW9-46" value="全局隐私" style="text;html=1;align=center;verticalAlign=middle;resizable=1;points=[];autosize=1;strokeColor=none;fillColor=none;movable=1;rotatable=1;deletable=1;editable=1;locked=0;connectable=1;labelBackgroundColor=default;fontSize=14;fontStyle=0" parent="SNS3hZ5IdxOkub6SCiW9-49" vertex="1">
          <mxGeometry x="650" y="480" width="80" height="30" as="geometry" />
        </mxCell>
        <mxCell id="SNS3hZ5IdxOkub6SCiW9-50" value="原始数据" style="text;html=1;align=center;verticalAlign=middle;resizable=0;points=[];autosize=1;strokeColor=none;fillColor=none;labelBackgroundColor=#d5e8d4;" parent="SNS3hZ5IdxOkub6SCiW9-49" vertex="1">
          <mxGeometry x="135" y="270" width="70" height="30" as="geometry" />
        </mxCell>
        <mxCell id="SNS3hZ5IdxOkub6SCiW9-62" value="" style="edgeStyle=elbowEdgeStyle;rounded=0;orthogonalLoop=1;jettySize=auto;html=1;exitX=0.5;exitY=0;exitDx=0;exitDy=0;labelBackgroundColor=default;" parent="SNS3hZ5IdxOkub6SCiW9-49" source="SNS3hZ5IdxOkub6SCiW9-15" target="SNS3hZ5IdxOkub6SCiW9-12" edge="1">
          <mxGeometry relative="1" as="geometry" />
        </mxCell>
        <mxCell id="SNS3hZ5IdxOkub6SCiW9-51" value="原始数据" style="text;html=1;align=center;verticalAlign=middle;resizable=0;points=[];autosize=1;strokeColor=none;fillColor=none;labelBackgroundColor=#d5e8d4;" parent="SNS3hZ5IdxOkub6SCiW9-49" vertex="1">
          <mxGeometry x="525" y="260" width="70" height="30" as="geometry" />
        </mxCell>
        <mxCell id="SNS3hZ5IdxOkub6SCiW9-53" value="数据产生者" style="text;html=1;align=center;verticalAlign=middle;resizable=0;points=[];autosize=1;strokeColor=none;fillColor=none;labelBackgroundColor=#d5e8d4;fontSize=14;" parent="SNS3hZ5IdxOkub6SCiW9-49" vertex="1">
          <mxGeometry x="120" y="420" width="90" height="30" as="geometry" />
        </mxCell>
        <mxCell id="SNS3hZ5IdxOkub6SCiW9-55" value="数据产生者" style="text;html=1;align=center;verticalAlign=middle;resizable=0;points=[];autosize=1;strokeColor=none;fillColor=none;labelBackgroundColor=#d5e8d4;fontSize=14;" parent="SNS3hZ5IdxOkub6SCiW9-49" vertex="1">
          <mxGeometry x="515" y="420" width="90" height="30" as="geometry" />
        </mxCell>
        <mxCell id="SNS3hZ5IdxOkub6SCiW9-54" value="隐私数据" style="text;html=1;align=center;verticalAlign=middle;resizable=0;points=[];autosize=1;strokeColor=none;fillColor=none;labelBackgroundColor=default;" parent="SNS3hZ5IdxOkub6SCiW9-49" vertex="1">
          <mxGeometry x="120" y="130" width="70" height="30" as="geometry" />
        </mxCell>
        <mxCell id="SNS3hZ5IdxOkub6SCiW9-56" value="询问" style="text;html=1;align=center;verticalAlign=middle;resizable=0;points=[];autosize=1;strokeColor=none;fillColor=none;labelBackgroundColor=default;" parent="SNS3hZ5IdxOkub6SCiW9-49" vertex="1">
          <mxGeometry x="730" y="150" width="50" height="30" as="geometry" />
        </mxCell>
        <mxCell id="SNS3hZ5IdxOkub6SCiW9-57" value="不信任的询问者" style="text;html=1;align=center;verticalAlign=middle;resizable=0;points=[];autosize=1;strokeColor=none;fillColor=none;labelBackgroundColor=default;fontSize=14;" parent="SNS3hZ5IdxOkub6SCiW9-49" vertex="1">
          <mxGeometry x="770" y="210" width="120" height="30" as="geometry" />
        </mxCell>
        <mxCell id="SNS3hZ5IdxOkub6SCiW9-59" value="原始回答" style="text;html=1;align=center;verticalAlign=middle;resizable=0;points=[];autosize=1;strokeColor=none;fillColor=none;labelBackgroundColor=#d5e8d4;" parent="SNS3hZ5IdxOkub6SCiW9-49" vertex="1">
          <mxGeometry x="590" y="70" width="70" height="30" as="geometry" />
        </mxCell>
        <mxCell id="SNS3hZ5IdxOkub6SCiW9-61" value="加密回答" style="text;html=1;align=center;verticalAlign=middle;resizable=0;points=[];autosize=1;strokeColor=none;fillColor=none;labelBackgroundColor=default;" parent="SNS3hZ5IdxOkub6SCiW9-49" vertex="1">
          <mxGeometry x="760" y="70" width="70" height="30" as="geometry" />
        </mxCell>
      </root>
    </mxGraphModel>
  </diagram>
  <diagram id="_SFmSk3Hd9fQY-KpZkrV" name="第 10 页">
    <mxGraphModel dx="1036" dy="951" grid="1" gridSize="10" guides="1" tooltips="1" connect="1" arrows="1" fold="1" page="0" pageScale="1" pageWidth="850" pageHeight="1100" math="0" shadow="0">
      <root>
        <mxCell id="0" />
        <mxCell id="1" parent="0" />
        <mxCell id="7JtTQPuPJNxHmp4kpk75-56" value="" style="rounded=0;whiteSpace=wrap;html=1;fillColor=#f5f5f5;fontColor=#333333;strokeColor=#666666;" parent="1" vertex="1">
          <mxGeometry x="590" y="10" width="280" height="510" as="geometry" />
        </mxCell>
        <mxCell id="7JtTQPuPJNxHmp4kpk75-21" style="edgeStyle=elbowEdgeStyle;rounded=0;orthogonalLoop=1;jettySize=auto;html=1;entryX=0;entryY=0.5;entryDx=0;entryDy=0;fontSize=15;" parent="1" source="7JtTQPuPJNxHmp4kpk75-1" target="7JtTQPuPJNxHmp4kpk75-9" edge="1">
          <mxGeometry relative="1" as="geometry" />
        </mxCell>
        <mxCell id="7JtTQPuPJNxHmp4kpk75-1" value="阴影训练集 1" style="shape=cylinder3;whiteSpace=wrap;html=1;boundedLbl=1;backgroundOutline=1;size=15;fontSize=15;fillColor=#d5e8d4;strokeColor=#82b366;" parent="1" vertex="1">
          <mxGeometry x="40" y="40" width="240" height="80" as="geometry" />
        </mxCell>
        <mxCell id="7JtTQPuPJNxHmp4kpk75-22" style="edgeStyle=elbowEdgeStyle;rounded=0;orthogonalLoop=1;jettySize=auto;html=1;entryX=0;entryY=0.5;entryDx=0;entryDy=0;fontSize=15;" parent="1" source="7JtTQPuPJNxHmp4kpk75-4" target="7JtTQPuPJNxHmp4kpk75-9" edge="1">
          <mxGeometry relative="1" as="geometry" />
        </mxCell>
        <mxCell id="7JtTQPuPJNxHmp4kpk75-4" value="阴影测试集 1" style="shape=cylinder3;whiteSpace=wrap;html=1;boundedLbl=1;backgroundOutline=1;size=15;fontSize=15;fillColor=#dae8fc;strokeColor=#6c8ebf;" parent="1" vertex="1">
          <mxGeometry x="40" y="130" width="240" height="80" as="geometry" />
        </mxCell>
        <mxCell id="7JtTQPuPJNxHmp4kpk75-23" style="edgeStyle=elbowEdgeStyle;rounded=0;orthogonalLoop=1;jettySize=auto;html=1;entryX=0;entryY=0.5;entryDx=0;entryDy=0;fontSize=15;" parent="1" source="7JtTQPuPJNxHmp4kpk75-5" target="7JtTQPuPJNxHmp4kpk75-10" edge="1">
          <mxGeometry relative="1" as="geometry" />
        </mxCell>
        <mxCell id="7JtTQPuPJNxHmp4kpk75-5" value="阴影训练集 k" style="shape=cylinder3;whiteSpace=wrap;html=1;boundedLbl=1;backgroundOutline=1;size=15;fontSize=15;fillColor=#d5e8d4;strokeColor=#82b366;" parent="1" vertex="1">
          <mxGeometry x="40" y="280" width="240" height="80" as="geometry" />
        </mxCell>
        <mxCell id="7JtTQPuPJNxHmp4kpk75-24" style="edgeStyle=elbowEdgeStyle;rounded=0;orthogonalLoop=1;jettySize=auto;html=1;entryX=0;entryY=0.5;entryDx=0;entryDy=0;fontSize=15;" parent="1" source="7JtTQPuPJNxHmp4kpk75-6" target="7JtTQPuPJNxHmp4kpk75-10" edge="1">
          <mxGeometry relative="1" as="geometry" />
        </mxCell>
        <mxCell id="7JtTQPuPJNxHmp4kpk75-6" value="阴影测试集 k" style="shape=cylinder3;whiteSpace=wrap;html=1;boundedLbl=1;backgroundOutline=1;size=15;fontSize=15;fillColor=#dae8fc;strokeColor=#6c8ebf;" parent="1" vertex="1">
          <mxGeometry x="40" y="370" width="240" height="80" as="geometry" />
        </mxCell>
        <mxCell id="7JtTQPuPJNxHmp4kpk75-7" value="" style="endArrow=none;dashed=1;html=1;dashPattern=1 3;strokeWidth=2;rounded=0;fontSize=15;" parent="1" edge="1">
          <mxGeometry width="50" height="50" relative="1" as="geometry">
            <mxPoint x="160" y="260" as="sourcePoint" />
            <mxPoint x="160" y="220" as="targetPoint" />
          </mxGeometry>
        </mxCell>
        <mxCell id="7JtTQPuPJNxHmp4kpk75-8" value="数据记录，原始标签" style="rounded=0;whiteSpace=wrap;html=1;dashed=1;dashPattern=8 8;fontSize=15;" parent="1" vertex="1">
          <mxGeometry x="40" y="-40" width="240" height="40" as="geometry" />
        </mxCell>
        <mxCell id="7JtTQPuPJNxHmp4kpk75-32" style="edgeStyle=none;rounded=0;orthogonalLoop=1;jettySize=auto;html=1;fontSize=15;" parent="1" source="7JtTQPuPJNxHmp4kpk75-9" target="7JtTQPuPJNxHmp4kpk75-11" edge="1">
          <mxGeometry relative="1" as="geometry" />
        </mxCell>
        <mxCell id="7JtTQPuPJNxHmp4kpk75-34" style="edgeStyle=none;rounded=0;orthogonalLoop=1;jettySize=auto;html=1;exitX=1;exitY=0.75;exitDx=0;exitDy=0;fontSize=15;" parent="1" source="7JtTQPuPJNxHmp4kpk75-9" edge="1">
          <mxGeometry relative="1" as="geometry">
            <mxPoint x="610" y="160" as="targetPoint" />
          </mxGeometry>
        </mxCell>
        <mxCell id="7JtTQPuPJNxHmp4kpk75-9" value="阴影模型1" style="rounded=1;whiteSpace=wrap;html=1;fontSize=15;fillColor=#f5f5f5;fontColor=#333333;strokeColor=#666666;" parent="1" vertex="1">
          <mxGeometry x="320" y="90" width="200" height="60" as="geometry" />
        </mxCell>
        <mxCell id="7JtTQPuPJNxHmp4kpk75-10" value="阴影模型k" style="rounded=1;whiteSpace=wrap;html=1;fontSize=15;fillColor=#f5f5f5;fontColor=#333333;strokeColor=#666666;" parent="1" vertex="1">
          <mxGeometry x="320" y="330" width="200" height="60" as="geometry" />
        </mxCell>
        <mxCell id="7JtTQPuPJNxHmp4kpk75-18" value="" style="shape=singleArrow;whiteSpace=wrap;html=1;fontSize=15;" parent="1" vertex="1">
          <mxGeometry x="320" y="-30" width="200" height="40" as="geometry" />
        </mxCell>
        <mxCell id="7JtTQPuPJNxHmp4kpk75-19" value="预测" style="text;html=1;align=center;verticalAlign=middle;resizable=0;points=[];autosize=1;strokeColor=none;fillColor=none;fontSize=15;" parent="1" vertex="1">
          <mxGeometry x="375" y="-52" width="50" height="30" as="geometry" />
        </mxCell>
        <mxCell id="7JtTQPuPJNxHmp4kpk75-27" value="" style="endArrow=none;dashed=1;html=1;dashPattern=1 3;strokeWidth=2;rounded=0;fontSize=15;" parent="1" edge="1">
          <mxGeometry width="50" height="50" relative="1" as="geometry">
            <mxPoint x="399.41" y="280" as="sourcePoint" />
            <mxPoint x="399.41" y="190" as="targetPoint" />
          </mxGeometry>
        </mxCell>
        <mxCell id="7JtTQPuPJNxHmp4kpk75-40" style="edgeStyle=orthogonalEdgeStyle;curved=1;rounded=0;orthogonalLoop=1;jettySize=auto;html=1;exitX=1;exitY=0.5;exitDx=0;exitDy=0;entryX=0.5;entryY=0;entryDx=0;entryDy=0;fontSize=15;" parent="1" source="7JtTQPuPJNxHmp4kpk75-56" target="7JtTQPuPJNxHmp4kpk75-37" edge="1">
          <mxGeometry relative="1" as="geometry">
            <mxPoint x="1499.9999999999995" y="105" as="sourcePoint" />
          </mxGeometry>
        </mxCell>
        <mxCell id="7JtTQPuPJNxHmp4kpk75-35" style="edgeStyle=none;rounded=0;orthogonalLoop=1;jettySize=auto;html=1;exitX=1;exitY=0.25;exitDx=0;exitDy=0;entryX=0;entryY=0.5;entryDx=0;entryDy=0;entryPerimeter=0;fontSize=15;" parent="1" source="7JtTQPuPJNxHmp4kpk75-10" target="7JtTQPuPJNxHmp4kpk75-13" edge="1">
          <mxGeometry relative="1" as="geometry" />
        </mxCell>
        <mxCell id="7JtTQPuPJNxHmp4kpk75-36" style="edgeStyle=none;rounded=0;orthogonalLoop=1;jettySize=auto;html=1;exitX=1;exitY=0.75;exitDx=0;exitDy=0;entryX=0;entryY=0.5;entryDx=0;entryDy=0;entryPerimeter=0;fontSize=15;" parent="1" source="7JtTQPuPJNxHmp4kpk75-10" target="7JtTQPuPJNxHmp4kpk75-14" edge="1">
          <mxGeometry relative="1" as="geometry" />
        </mxCell>
        <mxCell id="7JtTQPuPJNxHmp4kpk75-37" value="攻击模型" style="rounded=1;whiteSpace=wrap;html=1;fontSize=15;fillColor=#f8cecc;strokeColor=#b85450;" parent="1" vertex="1">
          <mxGeometry x="1030" y="460" width="160" height="60" as="geometry" />
        </mxCell>
        <mxCell id="7JtTQPuPJNxHmp4kpk75-41" value="训练" style="rounded=1;whiteSpace=wrap;html=1;strokeColor=none;fontSize=16;" parent="1" vertex="1">
          <mxGeometry x="1020" y="310" width="110" height="50" as="geometry" />
        </mxCell>
        <mxCell id="7JtTQPuPJNxHmp4kpk75-11" value="预测集 1" style="shape=cylinder3;whiteSpace=wrap;html=1;boundedLbl=1;backgroundOutline=1;size=15;fontSize=15;movable=1;resizable=1;rotatable=1;deletable=1;editable=1;locked=0;connectable=1;fillColor=#d5e8d4;strokeColor=#82b366;container=0;" parent="1" vertex="1">
          <mxGeometry x="610" y="40" width="240" height="80" as="geometry" />
        </mxCell>
        <mxCell id="7JtTQPuPJNxHmp4kpk75-12" value="预测集 1" style="shape=cylinder3;whiteSpace=wrap;html=1;boundedLbl=1;backgroundOutline=1;size=15;fontSize=15;movable=1;resizable=1;rotatable=1;deletable=1;editable=1;locked=0;connectable=1;fillColor=#dae8fc;strokeColor=#6c8ebf;container=0;" parent="1" vertex="1">
          <mxGeometry x="610" y="130" width="240" height="80" as="geometry" />
        </mxCell>
        <mxCell id="7JtTQPuPJNxHmp4kpk75-13" value="预测集 k" style="shape=cylinder3;whiteSpace=wrap;html=1;boundedLbl=1;backgroundOutline=1;size=15;fontSize=15;movable=1;resizable=1;rotatable=1;deletable=1;editable=1;locked=0;connectable=1;container=0;fillColor=#d5e8d4;strokeColor=#82b366;" parent="1" vertex="1">
          <mxGeometry x="610" y="280" width="240" height="80" as="geometry" />
        </mxCell>
        <mxCell id="7JtTQPuPJNxHmp4kpk75-14" value="预测集 k" style="shape=cylinder3;whiteSpace=wrap;html=1;boundedLbl=1;backgroundOutline=1;size=15;fontSize=15;movable=1;resizable=1;rotatable=1;deletable=1;editable=1;locked=0;connectable=1;container=0;fillColor=#dae8fc;strokeColor=#6c8ebf;" parent="1" vertex="1">
          <mxGeometry x="610" y="370" width="240" height="80" as="geometry" />
        </mxCell>
        <mxCell id="7JtTQPuPJNxHmp4kpk75-15" value="" style="endArrow=none;dashed=1;html=1;dashPattern=1 3;strokeWidth=2;rounded=0;fontSize=15;movable=1;resizable=1;rotatable=1;deletable=1;editable=1;locked=0;connectable=1;" parent="1" edge="1">
          <mxGeometry width="50" height="50" relative="1" as="geometry">
            <mxPoint x="730" y="260" as="sourcePoint" />
            <mxPoint x="730" y="220" as="targetPoint" />
          </mxGeometry>
        </mxCell>
        <mxCell id="7JtTQPuPJNxHmp4kpk75-16" value="预测，原始标签，" style="rounded=0;whiteSpace=wrap;html=1;dashed=1;dashPattern=8 8;fontSize=15;movable=1;resizable=1;rotatable=1;deletable=1;editable=1;locked=0;connectable=1;container=0;" parent="1" vertex="1">
          <mxGeometry x="610" y="-40" width="240" height="40" as="geometry" />
        </mxCell>
        <mxCell id="7JtTQPuPJNxHmp4kpk75-46" value="in" style="ellipse;whiteSpace=wrap;html=1;aspect=fixed;fontSize=13;movable=1;resizable=1;rotatable=1;deletable=1;editable=1;locked=0;connectable=1;container=0;" parent="1" vertex="1">
          <mxGeometry x="780" y="-30" width="20" height="20" as="geometry" />
        </mxCell>
        <mxCell id="7JtTQPuPJNxHmp4kpk75-47" value="in" style="ellipse;whiteSpace=wrap;html=1;aspect=fixed;fontSize=13;movable=1;resizable=1;rotatable=1;deletable=1;editable=1;locked=0;connectable=1;container=0;" parent="1" vertex="1">
          <mxGeometry x="680" y="80" width="20" height="20" as="geometry" />
        </mxCell>
        <mxCell id="7JtTQPuPJNxHmp4kpk75-48" value="in" style="ellipse;whiteSpace=wrap;html=1;aspect=fixed;fontSize=13;movable=1;resizable=1;rotatable=1;deletable=1;editable=1;locked=0;connectable=1;container=0;" parent="1" vertex="1">
          <mxGeometry x="680" y="320" width="20" height="20" as="geometry" />
        </mxCell>
        <mxCell id="7JtTQPuPJNxHmp4kpk75-49" value="out" style="ellipse;whiteSpace=wrap;html=1;aspect=fixed;fontSize=13;movable=1;resizable=1;rotatable=1;deletable=1;editable=1;locked=0;connectable=1;container=0;" parent="1" vertex="1">
          <mxGeometry x="680" y="170" width="20" height="20" as="geometry" />
        </mxCell>
        <mxCell id="7JtTQPuPJNxHmp4kpk75-50" value="out" style="ellipse;whiteSpace=wrap;html=1;aspect=fixed;fontSize=13;movable=1;resizable=1;rotatable=1;deletable=1;editable=1;locked=0;connectable=1;container=0;" parent="1" vertex="1">
          <mxGeometry x="680" y="410" width="20" height="20" as="geometry" />
        </mxCell>
        <mxCell id="7JtTQPuPJNxHmp4kpk75-51" value="out" style="ellipse;whiteSpace=wrap;html=1;aspect=fixed;fontSize=13;movable=1;resizable=1;rotatable=1;deletable=1;editable=1;locked=0;connectable=1;container=0;" parent="1" vertex="1">
          <mxGeometry x="810" y="-30" width="20" height="20" as="geometry" />
        </mxCell>
        <mxCell id="7JtTQPuPJNxHmp4kpk75-42" value="攻击训练集" style="text;html=1;align=center;verticalAlign=middle;resizable=1;points=[];autosize=1;strokeColor=none;fillColor=none;fontSize=15;movable=1;rotatable=1;deletable=1;editable=1;locked=0;connectable=1;" parent="1" vertex="1">
          <mxGeometry x="670" y="480" width="100" height="30" as="geometry" />
        </mxCell>
      </root>
    </mxGraphModel>
  </diagram>
</mxfile>
